<svg width="26" height="29" viewBox="0 0 26 29" fill="none" xmlns="http://www.w3.org/2000/svg">
<path d="M11.3104 1.594C11.7896 1.20953 12.3856 1 13 1C13.6144 1 14.2104 1.20953 14.6896 1.594L23.9896 9.0556C24.3049 9.30859 24.5594 9.62917 24.7343 9.99368C24.9092 10.3582 25 10.7573 25 11.1616V24.6976C25 25.4137 24.7155 26.1004 24.2092 26.6068C23.7028 27.1131 23.0161 27.3976 22.3 27.3976H18.7C17.9839 27.3976 17.2972 27.1131 16.7908 26.6068C16.2845 26.1004 16 25.4137 16 24.6976V17.4976C16 17.2589 15.9052 17.03 15.7364 16.8612C15.5676 16.6924 15.3387 16.5976 15.1 16.5976H10.9C10.6613 16.5976 10.4324 16.6924 10.2636 16.8612C10.0948 17.03 10 17.2589 10 17.4976V24.6976C10 25.4137 9.71554 26.1004 9.20919 26.6068C8.70284 27.1131 8.01608 27.3976 7.3 27.3976H3.7C2.98412 27.3976 2.29755 27.1133 1.79124 26.6072C1.28492 26.1011 1.00032 25.4147 1 24.6988V11.1628C1 10.3444 1.372 9.5692 2.0104 9.0568L11.3104 1.594ZM13.5628 2.998C13.4031 2.87004 13.2046 2.80032 13 2.80032C12.7954 2.80032 12.5969 2.87004 12.4372 2.998L3.1372 10.4596C3.03201 10.5439 2.9471 10.6507 2.88874 10.7722C2.83037 10.8937 2.80005 11.0268 2.8 11.1616V24.6976C2.8 25.1956 3.2032 25.5976 3.7 25.5976H7.3C7.5387 25.5976 7.76761 25.5028 7.9364 25.334C8.10518 25.1652 8.2 24.9363 8.2 24.6976V17.4976C8.2 16.7815 8.48446 16.0948 8.99081 15.5884C9.49716 15.0821 10.1839 14.7976 10.9 14.7976H15.1C15.8161 14.7976 16.5028 15.0821 17.0092 15.5884C17.5155 16.0948 17.8 16.7815 17.8 17.4976V24.6976C17.8 25.1956 18.2032 25.5976 18.7 25.5976H22.3C22.5387 25.5976 22.7676 25.5028 22.9364 25.334C23.1052 25.1652 23.2 24.9363 23.2 24.6976V11.1616C23.2001 11.0269 23.17 10.8939 23.1118 10.7724C23.0537 10.6509 22.969 10.544 22.864 10.4596L13.5628 2.998Z" fill="white" stroke="white" stroke-width="1.5"/>
</svg>
