<svg width="26" height="27" viewBox="0 0 26 27" fill="none" xmlns="http://www.w3.org/2000/svg">
<path d="M2.43746 0C1.08873 0 0 1.10555 0 2.47181V23.8914C0 25.2576 1.09036 26.3632 2.43746 26.3632H4.06243C5.40628 26.3632 6.49826 25.2576 6.49826 23.8914V2.47181C6.49826 1.10555 5.40628 0 4.06081 0H2.43746ZM10.5591 0C9.21359 0 8.12161 1.10555 8.12161 2.47181V23.8914C8.12161 25.2576 9.21359 26.3632 10.5591 26.3632H12.184C13.5295 26.3632 14.6199 25.2576 14.6199 23.8914V2.47181C14.6199 1.1072 13.5295 0 12.1824 0H10.5591ZM22.2914 6.85934C22.2171 6.5327 22.0783 6.22478 21.8833 5.95425C21.6884 5.68372 21.4413 5.45623 21.1572 5.28557C20.873 5.11492 20.5577 5.00465 20.2303 4.96147C19.9029 4.91829 19.5703 4.94309 19.2527 5.03437L18.0421 5.38088C17.4506 5.55068 16.9443 5.94138 16.6248 6.47455C16.3053 7.00772 16.1963 7.64387 16.3196 8.2553L19.5744 24.4243C19.6409 24.7521 19.7722 25.0627 19.9602 25.3375C20.1483 25.6122 20.3892 25.8454 20.6686 26.0229C20.9479 26.2005 21.2598 26.3186 21.5853 26.3703C21.9109 26.422 22.2434 26.4061 22.5627 26.3236L24.1633 25.9111C25.4471 25.581 26.2335 24.2709 25.9378 22.9624L22.2914 6.85934Z" fill="white"/>
</svg>
