<svg width="24" height="24" xmlns="http://www.w3.org/2000/svg" fill="transparent">
    <path
        d="M11.4585 5.18389L11.9999 5.68173L12.5414 5.18396C13.4834 4.31801 14.7162 3.8373 15.9958 3.837C16.6727 3.83757 17.3429 3.97192 17.9678 4.23233C18.5929 4.49279 19.1602 4.87422 19.6373 5.35469L20.205 4.79102L19.6381 5.35549C21.6851 7.41116 21.682 10.6015 19.6414 12.6412L19.6413 12.6413L12 20.2826L4.35868 12.6413L4.35856 12.6412C2.3176 10.6011 2.31524 7.41081 4.35788 5.35949L4.35905 5.35831C4.83644 4.87691 5.40432 4.49466 6.03001 4.23357C6.65557 3.97254 7.32657 3.83776 8.00441 3.837C9.28389 3.83715 10.5167 4.31785 11.4585 5.18389Z"
        stroke="#fff"
        stroke-width="1.6"
    />
</svg>