<svg width="24" height="24" viewBox="0 0 24 24" fill="none" xmlns="http://www.w3.org/2000/svg">
    <path
        d="M1 23V4.791C1 4.2474 1.17716 3.78372 1.53148 3.39996C1.8858 3.017 2.31481 2.82552 2.81851 2.82552H13.8196C14.3226 2.82552 14.7516 3.017 15.1067 3.39996C15.461 3.78291 15.6381 4.24659 15.6381 4.791V5.09769C15.4189 5.21128 15.2189 5.3411 15.038 5.48714C14.8578 5.63156 14.6825 5.78977 14.5121 5.96177V4.791C14.5121 4.57275 14.4472 4.39345 14.3173 4.25308C14.1875 4.11272 14.0216 4.04254 13.8196 4.04254H2.81851C2.61658 4.04254 2.45068 4.11272 2.32081 4.25308C2.19094 4.39345 2.12601 4.57275 2.12601 4.791V18.6467H13.8196C14.0216 18.6467 14.1875 18.5766 14.3173 18.4362C14.4472 18.2958 14.5121 18.1165 14.5121 17.8983V14.2935C14.6825 14.4655 14.8578 14.6237 15.038 14.7681C15.2181 14.9141 15.4182 15.044 15.6381 15.1575V17.8983C15.6381 18.4419 15.461 18.9056 15.1067 19.2893C14.7523 19.6723 14.3233 19.8637 13.8196 19.8637H3.90173L1 23ZM4.94104 15.6042H8.31907V14.3872H4.94104V15.6042ZM17.933 13.1702C17.1538 13.1702 16.4898 12.874 15.941 12.2817C15.393 11.6878 15.119 10.9698 15.119 10.1276C15.119 9.28545 15.393 8.56741 15.941 7.9735C16.489 7.38122 17.1534 7.08508 17.9341 7.08508C18.2989 7.08508 18.6074 7.14066 18.8597 7.25181C19.1126 7.36215 19.3667 7.54917 19.622 7.81286V1H23V2.21702H20.748V10.1276C20.748 10.9698 20.474 11.6878 19.926 12.2817C19.3772 12.874 18.7129 13.1702 17.933 13.1702ZM4.94104 11.9531H11.6971V10.7361H4.94104V11.9531ZM4.94104 8.3021H11.6971V7.08508H4.94104V8.3021Z"
        fill="white" />
    <path
        d="M2.12601 18.6467V4.04254M2.12601 18.6467V4.791C2.12601 4.57275 2.19094 4.39345 2.32081 4.25308C2.45068 4.11272 2.61658 4.04254 2.81851 4.04254H13.8196C14.0216 4.04254 14.1875 4.11272 14.3173 4.25308C14.4472 4.39345 14.5121 4.57275 14.5121 4.791V5.96177C14.6825 5.78977 14.8578 5.63156 15.038 5.48714C15.2189 5.3411 15.4189 5.21128 15.6381 5.09769V4.791C15.6381 4.24659 15.461 3.78291 15.1067 3.39996C14.7516 3.017 14.3226 2.82552 13.8196 2.82552H2.81851C2.31481 2.82552 1.8858 3.017 1.53148 3.39996C1.17716 3.78372 1 4.2474 1 4.791V23L3.90173 19.8637H13.8196C14.3233 19.8637 14.7523 19.6723 15.1067 19.2893C15.461 18.9056 15.6381 18.4419 15.6381 17.8983V15.1575C15.4182 15.044 15.2181 14.9141 15.038 14.7681C14.8578 14.6237 14.6825 14.4655 14.5121 14.2935V17.8983C14.5121 18.1165 14.4472 18.2958 14.3173 18.4362C14.1875 18.5766 14.0216 18.6467 13.8196 18.6467H2.12601ZM4.94104 15.6042H8.31907V14.3872H4.94104V15.6042ZM17.933 13.1702C17.1538 13.1702 16.4898 12.874 15.941 12.2817C15.393 11.6878 15.119 10.9698 15.119 10.1276C15.119 9.28545 15.393 8.56741 15.941 7.9735C16.489 7.38122 17.1534 7.08508 17.9341 7.08508C18.2989 7.08508 18.6074 7.14066 18.8597 7.25181C19.1126 7.36215 19.3667 7.54917 19.622 7.81286V1H23V2.21702H20.748V10.1276C20.748 10.9698 20.474 11.6878 19.926 12.2817C19.3772 12.874 18.7129 13.1702 17.933 13.1702ZM4.94104 11.9531H11.6971V10.7361H4.94104V11.9531ZM4.94104 8.3021H11.6971V7.08508H4.94104V8.3021Z"
        stroke="white" stroke-width="0.6" />
</svg>
    