<svg width="24" height="24" viewBox="0 0 24 24" fill="none" xmlns="http://www.w3.org/2000/svg">
<path d="M12.2718 16.504C13.0615 16.504 13.7297 16.2311 14.2766 15.6852C14.8225 15.1384 15.0955 14.4702 15.0955 13.6805V5.59109H18.9512V3.41839H14.0098V11.6179C13.7763 11.3638 13.5147 11.1737 13.2248 11.0476C12.9358 10.9205 12.6182 10.857 12.2718 10.857C11.483 10.857 10.8152 11.1304 10.2684 11.6772C9.72151 12.224 9.44856 12.8923 9.4495 13.6819C9.4495 14.4706 9.72245 15.1384 10.2684 15.6852C10.8143 16.2311 11.4811 16.504 12.2718 16.504ZM6.51568 19.7624C5.86623 19.7624 5.32408 19.545 4.88923 19.1102C4.45344 18.6744 4.23554 18.1318 4.23554 17.4824V2.27768C4.23554 1.62827 4.45344 1.08615 4.88923 0.651328C5.32408 0.215563 5.86576 -0.00231934 6.51427 -0.00231934H21.7199C22.3693 -0.00231934 22.9115 0.215563 23.3463 0.651328C23.7821 1.08615 24 1.62827 24 2.27768V17.4824C24 18.1318 23.7826 18.6744 23.3477 19.1102C22.9119 19.545 22.3693 19.7624 21.7199 19.7624H6.51568ZM6.51568 18.3506H21.7213C21.9378 18.3506 22.1368 18.2603 22.3185 18.0796C22.4992 17.8979 22.5896 17.6989 22.5896 17.4824V2.27768C22.5896 2.06121 22.4992 1.86215 22.3185 1.6805C22.1368 1.4998 21.9378 1.40945 21.7213 1.40945H6.51568C6.29919 1.40945 6.10012 1.4998 5.91847 1.6805C5.73775 1.86215 5.64739 2.06121 5.64739 2.27768V17.4824C5.64739 17.6989 5.73775 17.8979 5.91847 18.0796C6.10012 18.2603 6.29919 18.3506 6.51568 18.3506ZM2.28013 23.9977C1.63068 23.9977 1.08853 23.7803 0.653686 23.3454C0.217895 22.9097 0 22.3671 0 21.7177V5.10121H1.41185V21.7177C1.41185 21.9342 1.50221 22.1332 1.68292 22.3149C1.86458 22.4956 2.06365 22.5859 2.28013 22.5859H18.8976V23.9977H2.28013Z" fill="white"/>
</svg>
