<svg width="16" height="16" viewBox="0 0 16 16" fill="none" xmlns="http://www.w3.org/2000/svg">
<path d="M15 1.49994C15 1.36736 14.9473 1.2402 14.8536 1.14644C14.7598 1.05269 14.6326 1.00002 14.5 1.00002C14.3674 1.00002 14.2402 1.05269 14.1464 1.14644C14.0527 1.2402 14 1.36736 14 1.49994V14.498C14 14.6306 14.0527 14.7577 14.1464 14.8515C14.2402 14.9452 14.3674 14.9979 14.5 14.9979C14.6326 14.9979 14.7598 14.9452 14.8536 14.8515C14.9473 14.7577 15 14.6306 15 14.498V1.49994ZM1 2.25183C1 1.25198 2.117 0.657072 2.947 1.21399L11.447 6.92012C11.6167 7.03402 11.7559 7.1878 11.8524 7.36798C11.9488 7.54816 11.9996 7.74924 12.0003 7.95361C12.001 8.15798 11.9516 8.3594 11.8563 8.54022C11.7611 8.72105 11.6229 8.87576 11.454 8.99081L2.954 14.7829C2.76614 14.911 2.54692 14.9853 2.31993 14.998C2.09294 15.0108 1.86678 14.9613 1.66579 14.8551C1.4648 14.7489 1.2966 14.5898 1.17928 14.3951C1.06197 14.2004 0.999982 13.9774 1 13.7501V2.25183ZM2.39 2.04486C2.35241 2.01946 2.30861 2.00476 2.2633 2.00235C2.21799 1.99993 2.17287 2.00989 2.13279 2.03116C2.09271 2.05243 2.05918 2.08421 2.03579 2.12308C2.01239 2.16196 2.00002 2.20646 2 2.25183V13.7501C2 13.9501 2.225 14.07 2.391 13.9571L10.891 8.16494C10.9247 8.14187 10.9523 8.1109 10.9712 8.07472C10.9902 8.03855 11 7.99828 10.9998 7.95744C10.9996 7.91659 10.9894 7.87642 10.9701 7.84043C10.9508 7.80444 10.9229 7.77374 10.889 7.751L2.39 2.04486Z" fill="white"/>
</svg>
