<svg width="16" height="16" viewBox="0 0 16 16" fill="none" xmlns="http://www.w3.org/2000/svg">
<path d="M3.8 1C3.32261 1 2.86477 1.18437 2.52721 1.51256C2.18964 1.84075 2 2.28587 2 2.75V13.25C2 13.7141 2.18964 14.1592 2.52721 14.4874C2.86477 14.8156 3.32261 15 3.8 15H5.6C6.07739 15 6.53523 14.8156 6.87279 14.4874C7.21036 14.1592 7.4 13.7141 7.4 13.25V2.75C7.4 2.28587 7.21036 1.84075 6.87279 1.51256C6.53523 1.18437 6.07739 1 5.6 1H3.8ZM2.9 2.75C2.9 2.51794 2.99482 2.29538 3.1636 2.13128C3.33239 1.96719 3.56131 1.875 3.8 1.875H5.6C5.83869 1.875 6.06761 1.96719 6.2364 2.13128C6.40518 2.29538 6.5 2.51794 6.5 2.75V13.25C6.5 13.4821 6.40518 13.7046 6.2364 13.8687C6.06761 14.0328 5.83869 14.125 5.6 14.125H3.8C3.56131 14.125 3.33239 14.0328 3.1636 13.8687C2.99482 13.7046 2.9 13.4821 2.9 13.25V2.75ZM11 1C10.5226 1 10.0648 1.18437 9.72721 1.51256C9.38964 1.84075 9.2 2.28587 9.2 2.75V13.25C9.2 13.7141 9.38964 14.1592 9.72721 14.4874C10.0648 14.8156 10.5226 15 11 15H12.8C13.2774 15 13.7352 14.8156 14.0728 14.4874C14.4104 14.1592 14.6 13.7141 14.6 13.25V2.75C14.6 2.28587 14.4104 1.84075 14.0728 1.51256C13.7352 1.18437 13.2774 1 12.8 1H11ZM10.1 2.75C10.1 2.51794 10.1948 2.29538 10.3636 2.13128C10.5324 1.96719 10.7613 1.875 11 1.875H12.8C13.0387 1.875 13.2676 1.96719 13.4364 2.13128C13.6052 2.29538 13.7 2.51794 13.7 2.75V13.25C13.7 13.4821 13.6052 13.7046 13.4364 13.8687C13.2676 14.0328 13.0387 14.125 12.8 14.125H11C10.7613 14.125 10.5324 14.0328 10.3636 13.8687C10.1948 13.7046 10.1 13.4821 10.1 13.25V2.75Z" fill="white"/>
</svg>
