<svg width="16" height="16" viewBox="0 0 16 16" fill="none" xmlns="http://www.w3.org/2000/svg">
<path d="M14.2827 6.68658C14.4999 6.81582 14.6811 7.0059 14.8072 7.23695C14.9334 7.468 15 7.73154 15 8C15 8.26847 14.9334 8.532 14.8072 8.76305C14.6811 8.9941 14.4999 9.18418 14.2827 9.31342L5.05249 14.8142C4.8417 14.9398 4.60433 15.0038 4.36378 14.9998C4.12322 14.9958 3.88777 14.924 3.68062 14.7915C3.47347 14.6589 3.30176 14.4702 3.18242 14.2439C3.06307 14.0175 3.0002 13.7614 3 13.5008V2.49923C3.0002 2.23857 3.06307 1.98247 3.18242 1.75615C3.30176 1.52982 3.47347 1.34109 3.68062 1.20853C3.88777 1.07597 4.12322 1.00416 4.36378 1.00018C4.60433 0.996191 4.8417 1.06017 5.05249 1.1858L14.2827 6.68658ZM13.8377 8.43714C13.9098 8.39389 13.97 8.33048 14.0119 8.25352C14.0538 8.17656 14.0758 8.08884 14.0758 7.9995C14.0758 7.91016 14.0538 7.82244 14.0119 7.74548C13.97 7.66852 13.9098 7.60511 13.8377 7.56186L4.60746 2.06109C4.53718 2.01919 4.45803 1.99787 4.37782 1.99921C4.2976 2.00055 4.2191 2.02452 4.15004 2.06875C4.08098 2.11297 4.02375 2.17593 3.98399 2.25142C3.94423 2.3269 3.92331 2.41231 3.9233 2.49923V13.5008C3.92331 13.5877 3.94423 13.6731 3.98399 13.7486C4.02375 13.8241 4.08098 13.887 4.15004 13.9313C4.2191 13.9755 4.2976 13.9994 4.37782 14.0008C4.45803 14.0021 4.53718 13.9808 4.60746 13.9389L13.8377 8.43714Z" fill="white"/>
</svg>
