<svg width="21" height="16" viewBox="0 0 21 16" fill="none" xmlns="http://www.w3.org/2000/svg">
    <path d="M2 3H4.26091C4.44692 3 4.62923 3.05188 4.78737 3.1498L6.83377 4.41695C6.94355 4.48493 7.03913 4.57353 7.11522 4.67785L9.53846 8M9.53846 8L12 10.983L13.5488 12.6752C13.7383 12.8821 14.0059 13 14.2865 13H16M9.53846 8L7.11522 11.3222C7.03913 11.4265 6.94355 11.5151 6.83377 11.583L4.78737 12.8502C4.62923 12.9481 4.44692 13 4.26091 13H2M9.53846 8L12 5.01705L13.5488 3.32483C13.7383 3.11787 14.0059 3 14.2865 3H16" stroke="white" stroke-width="3" stroke-linecap="round"/>
    <path d="M15 1L19 2.71429L15 5" stroke="white" stroke-width="1.6"/>
    <path d="M15 11L19 12.7143L15 15" stroke="white" stroke-width="1.6"/>
    </svg>
    