<svg width="14" height="12" viewBox="0 0 14 12" fill="none" xmlns="http://www.w3.org/2000/svg">
<path d="M10.5 10.2583C10.5 11.2206 9.52 12 8.3125 12C7.105 12 6.125 11.2206 6.125 10.2583C6.125 9.29597 7.105 8.51654 8.3125 8.51654C9.52 8.51654 10.5 9.29597 10.5 10.2583Z" fill="white"/>
<path fill-rule="evenodd" clip-rule="evenodd" d="M10.5 1.54962V10.2583H9.625V1.54962H10.5Z" fill="white"/>
<path d="M9.625 1.39286C9.62512 1.19161 9.69527 0.996612 9.82353 0.841022C9.95178 0.685433 10.1302 0.578856 10.3285 0.539411L12.9535 0.0168915C13.0804 -0.00835207 13.2113 -0.00526857 13.3369 0.0259199C13.4624 0.0571083 13.5795 0.115625 13.6796 0.197254C13.7797 0.278884 13.8603 0.381593 13.9157 0.497983C13.9711 0.614374 13.9999 0.741546 14 0.87034V2.42048L9.625 3.29135V1.39286Z" fill="white"/>
<path fill-rule="evenodd" clip-rule="evenodd" d="M0 8.95198C0 8.83649 0.0460936 8.72574 0.128141 8.64408C0.210188 8.56242 0.321468 8.51654 0.4375 8.51654H3.5C3.61603 8.51654 3.72731 8.56242 3.80936 8.64408C3.89141 8.72574 3.9375 8.83649 3.9375 8.95198C3.9375 9.06746 3.89141 9.17822 3.80936 9.25988C3.72731 9.34153 3.61603 9.38741 3.5 9.38741H0.4375C0.321468 9.38741 0.210188 9.34153 0.128141 9.25988C0.0460936 9.17822 0 9.06746 0 8.95198ZM0 5.46852C0 5.35303 0.0460936 5.24228 0.128141 5.16062C0.210188 5.07896 0.321468 5.03308 0.4375 5.03308H7C7.11603 5.03308 7.22731 5.07896 7.30936 5.16062C7.39141 5.24228 7.4375 5.35303 7.4375 5.46852C7.4375 5.584 7.39141 5.69475 7.30936 5.77641C7.22731 5.85807 7.11603 5.90395 7 5.90395H0.4375C0.321468 5.90395 0.210188 5.85807 0.128141 5.77641C0.0460936 5.69475 0 5.584 0 5.46852ZM0 1.98505C0 1.86957 0.0460936 1.75882 0.128141 1.67716C0.210188 1.5955 0.321468 1.54962 0.4375 1.54962H7C7.11603 1.54962 7.22731 1.5955 7.30936 1.67716C7.39141 1.75882 7.4375 1.86957 7.4375 1.98505C7.4375 2.10054 7.39141 2.21129 7.30936 2.29295C7.22731 2.37461 7.11603 2.42049 7 2.42049H0.4375C0.321468 2.42049 0.210188 2.37461 0.128141 2.29295C0.0460936 2.21129 0 2.10054 0 1.98505Z" fill="white"/>
</svg>
