<svg width="25" height="27" viewBox="0 0 25 27" fill="none" xmlns="http://www.w3.org/2000/svg">
<path d="M12.5 0C11.1265 0 9.78388 0.407456 8.64187 1.17084C7.49987 1.93423 6.60978 3.01926 6.08417 4.28873C5.55856 5.55819 5.42104 6.95508 5.68899 8.30273C5.95694 9.65039 6.61834 10.8883 7.58954 11.8599C8.56073 12.8315 9.79812 13.4932 11.1452 13.7612C12.4923 14.0293 13.8886 13.8917 15.1575 13.3659C16.4265 12.8401 17.511 11.9496 18.2741 10.8071C19.0372 9.66463 19.4444 8.32143 19.4444 6.94737C19.4444 5.10481 18.7128 3.33772 17.4105 2.03484C16.1081 0.731953 14.3418 0 12.5 0ZM12.5 11.1158C11.6759 11.1158 10.8703 10.8713 10.1851 10.4133C9.49992 9.95525 8.96587 9.30423 8.6505 8.54255C8.33514 7.78087 8.25262 6.94274 8.41339 6.13415C8.57417 5.32556 8.971 4.58281 9.55372 3.99985C10.1364 3.41689 10.8789 3.01988 11.6871 2.85904C12.4954 2.6982 13.3332 2.78075 14.0945 3.09625C14.8559 3.41175 15.5066 3.94602 15.9645 4.63152C16.4223 5.31701 16.6667 6.12293 16.6667 6.94737C16.6667 8.0529 16.2277 9.11316 15.4463 9.89489C14.6649 10.6766 13.6051 11.1158 12.5 11.1158ZM25 26.4V25.0105C25 22.4309 23.9757 19.957 22.1524 18.133C20.3292 16.3089 17.8563 15.2842 15.2778 15.2842H9.72222C7.14373 15.2842 4.67084 16.3089 2.84757 18.133C1.0243 19.957 0 22.4309 0 25.0105V26.4H2.77778V25.0105C2.77778 23.168 3.50942 21.4009 4.81176 20.098C6.11409 18.7951 7.88044 18.0632 9.72222 18.0632H15.2778C17.1196 18.0632 18.8859 18.7951 20.1882 20.098C21.4906 21.4009 22.2222 23.168 22.2222 25.0105V26.4H25Z" fill="white"/>
</svg>
