<svg width="23" height="20" viewBox="0 0 23 20" fill="none" xmlns="http://www.w3.org/2000/svg">
    <path
        d="M19.9047 2.57182C20.4857 2.82171 21.0179 3.71148 21.403 5.07698C21.7881 6.44248 22.0001 8.19158 22 10.0016C21.9999 11.8116 21.7876 13.5604 21.4023 14.9254C21.017 16.2904 20.4848 17.1795 19.9037 17.4286"
        stroke="white" stroke-width="2" stroke-linecap="round" />
    <path
        d="M15.8963 4.11564C16.4579 4.39732 16.9629 5.17935 17.3223 6.32405C17.6818 7.46875 17.8726 8.90275 17.8613 10.3736C17.85 11.8445 17.6372 13.258 17.2605 14.3652C16.8837 15.4725 16.3671 16.2025 15.8016 16.4269"
        stroke="white" stroke-width="1.6" stroke-linecap="round" />
    <path
        d="M12.7092 5C12.9337 5 13.1559 5.12933 13.3633 5.3806C13.5707 5.63188 13.7591 6.00017 13.9178 6.46447C14.0765 6.92876 14.2024 7.47996 14.2883 8.08658C14.3742 8.69321 14.4184 9.34339 14.4184 10C14.4184 10.6566 14.3742 11.3068 14.2883 11.9134C14.2024 12.52 14.0765 13.0712 13.9178 13.5355C13.7591 13.9998 13.5707 14.3681 13.3633 14.6194C13.1559 14.8707 12.9337 15 12.7092 15"
        stroke="white" stroke-width="1.6" stroke-linecap="round" />
    <path
        d="M6.47412 4.60771L8.20584 2.34465C8.78688 1.58533 10 1.99623 10 2.95236V16.4512C10 17.4607 8.67422 17.8343 8.14712 16.9733L6.46645 14.2279C6.28471 13.931 5.96166 13.75 5.61357 13.75H3C2.44772 13.75 2 13.3023 2 12.75V6C2 5.44772 2.44772 5 3 5H5.67995C5.99131 5 6.2849 4.85497 6.47412 4.60771Z"
        stroke="white" stroke-width="2.2" />
</svg>
    