<?xml version="1.0" standalone="no"?>
<!DOCTYPE svg PUBLIC "-//W3C//DTD SVG 20010904//EN"
 "http://www.w3.org/TR/2001/REC-SVG-20010904/DTD/svg10.dtd">
<svg version="1.0" xmlns="http://www.w3.org/2000/svg"
 width="360.000000pt" height="360.000000pt" viewBox="0 0 360.000000 360.000000"
 preserveAspectRatio="xMidYMid meet">
<metadata>
Created by potrace 1.14, written by Peter Selinger 2001-2017
</metadata>
<g transform="translate(0.000000,360.000000) scale(0.100000,-0.100000)"
fill="#000000" stroke="none">
<path d="M3410 3280 l-30 -28 0 -750 c0 -454 4 -761 10 -776 22 -58 110 -69
150 -19 20 25 20 39 20 784 l0 758 -23 26 c-34 40 -88 42 -127 5z"/>
<path d="M1339 3265 c-14 -7 -30 -25 -36 -38 -8 -18 -12 -238 -12 -768 0 -812
-1 -786 59 -807 65 -23 120 18 121 91 0 56 0 1415 0 1449 -2 61 -77 103 -132
73z"/>
<path d="M2592 3150 c-16 -10 -34 -31 -39 -47 -11 -35 -11 -1283 1 -1301 16
-26 65 -49 96 -44 17 2 40 16 53 31 l23 27 -1 647 c0 637 0 647 -20 667 -34
33 -78 41 -113 20z"/>
<path d="M944 3132 c-12 -2 -32 -14 -45 -28 l-24 -26 0 -619 0 -619 26 -26
c36 -36 92 -36 128 0 l26 26 0 619 c0 587 -1 620 -19 639 -21 24 -62 39 -92
34z"/>
<path d="M513 2900 c-12 -5 -30 -21 -39 -35 -16 -24 -17 -64 -17 -411 0 -384
0 -385 23 -409 28 -30 66 -39 102 -24 55 22 56 31 56 439 0 404 -2 415 -53
438 -30 14 -42 14 -72 2z"/>
<path d="M1740 2880 l-30 -28 0 -390 0 -391 24 -28 c19 -22 32 -28 66 -28 34
0 47 6 66 28 l24 28 0 389 0 389 -22 25 c-35 39 -90 42 -128 6z"/>
<path d="M3025 2900 c-11 -4 -29 -18 -40 -30 -19 -21 -20 -36 -20 -417 l0
-395 28 -24 c60 -51 146 -14 148 63 1 47 1 712 0 734 -2 43 -73 85 -116 69z"/>
<path d="M79 2807 c-37 -28 -39 -50 -39 -355 l0 -299 26 -27 c15 -14 32 -27
38 -27 48 -5 90 14 105 48 16 34 15 596 -1 626 -17 33 -39 46 -78 46 -19 0
-42 -5 -51 -12z"/>
<path d="M2155 2794 c-20 -22 -25 -38 -26 -83 -1 -88 -1 -503 0 -533 2 -69 93
-101 148 -54 l28 24 0 312 0 312 -28 24 c-39 33 -90 32 -122 -2z"/>
<path d="M335 1230 c-16 -3 -34 -14 -40 -26 -5 -11 -10 -80 -9 -152 1 -162 1
-163 117 -159 75 2 80 4 108 35 35 39 39 97 10 133 -16 20 -17 27 -7 49 19 37
3 86 -34 105 -32 17 -97 23 -145 15z m103 -73 c6 -5 12 -17 12 -27 0 -14 -10
-21 -34 -26 -44 -8 -56 0 -56 35 0 24 4 27 33 26 17 0 38 -4 45 -8z m26 -139
c19 -30 -4 -53 -58 -56 l-46 -3 0 40 0 40 46 -2 c32 -1 50 -8 58 -19z"/>
<path d="M644 1232 c-38 -7 -44 -30 -44 -167 0 -173 1 -175 116 -174 94 1 123
14 104 50 -9 16 -22 19 -75 19 -36 0 -66 4 -66 10 -1 6 -1 17 -1 25 0 32 3 35
46 35 59 0 76 8 76 35 0 27 -17 35 -75 35 -33 0 -44 4 -48 19 -8 33 10 49 50
46 74 -6 112 20 79 54 -14 14 -110 21 -162 13z"/>
<path d="M983 1232 c-13 -8 -123 -288 -123 -314 0 -20 28 -38 48 -31 8 3 22
25 32 49 l19 44 59 0 59 0 17 -44 c18 -48 47 -64 71 -39 8 8 15 17 15 20 0 15
-115 291 -128 306 -16 18 -48 22 -69 9z m52 -138 c8 -20 12 -40 9 -45 -5 -8
-51 -5 -60 4 -5 5 24 77 31 77 3 0 12 -16 20 -36z"/>
<path d="M1199 1228 c-22 -9 -26 -53 -5 -61 7 -3 26 -4 40 -3 38 5 44 -13 43
-142 0 -113 5 -133 37 -138 32 -5 40 25 38 147 -2 129 -3 127 54 133 16 2 32
4 37 5 11 2 8 49 -4 57 -16 9 -215 11 -240 2z"/>
<path d="M1718 1232 c-46 -5 -51 -21 -50 -169 2 -167 5 -173 100 -173 39 0 78
6 99 17 55 26 73 101 35 152 -11 16 -17 32 -12 37 9 10 13 36 11 71 -2 47 -85
76 -183 65z m103 -79 c6 -6 8 -20 5 -31 -5 -15 -15 -19 -44 -18 -31 1 -38 5
-40 25 -2 13 1 27 8 31 16 10 58 6 71 -7z m7 -119 c32 -9 31 -61 -2 -70 -45
-11 -81 -1 -84 24 -7 49 20 63 86 46z"/>
<path d="M1996 1224 c-13 -13 -15 -37 -13 -140 3 -124 3 -125 33 -155 65 -65
185 -58 238 14 17 23 21 44 22 140 1 62 0 119 -2 129 -6 22 -31 30 -55 18 -17
-10 -19 -22 -19 -125 0 -112 0 -114 -27 -135 -20 -16 -36 -20 -58 -16 -48 10
-55 29 -55 147 0 84 -3 111 -16 123 -19 20 -29 20 -48 0z"/>
<path d="M2404 1232 c-45 -4 -53 -31 -53 -176 -1 -116 1 -128 20 -147 19 -19
30 -21 98 -17 91 5 130 25 161 81 48 84 17 202 -62 240 -34 16 -108 24 -164
19z m135 -81 c26 -14 45 -74 37 -116 -9 -47 -48 -75 -102 -75 l-44 0 0 99 c0
71 4 101 13 104 19 6 74 -1 96 -12z"/>
<path d="M2773 1230 c-24 -4 -46 -10 -50 -14 -4 -4 -8 -71 -9 -148 -2 -178 0
-180 115 -176 89 4 140 29 166 84 31 65 22 158 -20 204 -38 42 -117 62 -202
50z m115 -74 c25 -8 52 -54 52 -89 0 -72 -42 -112 -111 -105 l-34 3 -3 89 c-2
49 -1 95 2 101 4 12 56 13 94 1z"/>
<path d="M3056 1224 c-9 -8 -16 -20 -16 -26 0 -5 25 -45 55 -88 53 -75 55 -80
55 -144 0 -71 15 -91 55 -76 16 6 20 17 21 75 2 65 5 72 55 144 29 42 52 84
51 95 -1 22 -1 22 -29 30 -20 6 -28 -1 -65 -58 -23 -36 -45 -66 -49 -66 -4 0
-22 23 -40 51 -53 82 -65 91 -93 63z"/>
</g>
</svg>
