<svg width="26" height="29" viewBox="0 0 26 29" fill="none" xmlns="http://www.w3.org/2000/svg">
<path d="M11.3104 1.59405C11.7896 1.20955 12.3856 1 13 1C13.6144 1 14.2104 1.20955 14.6896 1.59405L23.9896 9.05633C24.3049 9.30935 24.5594 9.62996 24.7343 9.9945C24.9092 10.359 25 10.7582 25 11.1625V24.6998C25 25.4159 24.7155 26.1027 24.2092 26.6091C23.7028 27.1155 23.0161 27.4 22.3 27.4H18.7C17.9839 27.4 17.2972 27.1155 16.7908 26.6091C16.2845 26.1027 16 25.4159 16 24.6998V17.4991C16 17.2604 15.9052 17.0314 15.7364 16.8626C15.5676 16.6938 15.3387 16.599 15.1 16.599H10.9C10.6613 16.599 10.4324 16.6938 10.2636 16.8626C10.0948 17.0314 10 17.2604 10 17.4991V24.6998C10 25.4159 9.71554 26.1027 9.20919 26.6091C8.70284 27.1155 8.01608 27.4 7.3 27.4H3.7C2.98412 27.4 2.29755 27.1157 1.79124 26.6095C1.28492 26.1034 1.00032 25.4169 1 24.701V11.1637C1 10.3452 1.372 9.56998 2.0104 9.05753L11.3104 1.59405ZM13.5628 2.99818C13.4031 2.87021 13.2046 2.80048 13 2.80048C12.7954 2.80048 12.5969 2.87021 12.4372 2.99818L5.8 8.32384L3.1372 10.4605C3.03201 10.5448 2.9471 10.6516 2.88874 10.7731C2.83037 10.8946 2.80005 11.0277 2.8 11.1625V24.6998C2.8 25.1978 3.2032 25.5998 3.7 25.5998H5.8H7.3C7.5387 25.5998 7.76761 25.505 7.9364 25.3362C8.10518 25.1674 8.2 24.9385 8.2 24.6998V17.4991C8.2 16.7829 8.48446 16.0961 8.99081 15.5897C9.49716 15.0833 10.1839 14.7989 10.9 14.7989H15.1C15.8161 14.7989 16.5028 15.0833 17.0092 15.5897C17.5155 16.0961 17.8 16.7829 17.8 17.4991V24.6998C17.8 25.1978 18.2032 25.5998 18.7 25.5998H22.3C22.5387 25.5998 22.7676 25.505 22.9364 25.3362C23.1052 25.1674 23.2 24.9385 23.2 24.6998V11.1625C23.2001 11.0278 23.17 10.8948 23.1118 10.7733C23.0537 10.6518 22.969 10.5449 22.864 10.4605L20.8 8.80453L19.4996 7.76124L13.5628 2.99818Z" fill="white"/>
<path d="M19 8.32384L19.4996 7.76124M19.4996 7.76124L20.8 8.80453L22.864 10.4605C22.969 10.5449 23.0537 10.6518 23.1118 10.7733C23.17 10.8948 23.2001 11.0278 23.2 11.1625V24.6998C23.2 24.9385 23.1052 25.1674 22.9364 25.3362C22.7676 25.505 22.5387 25.5998 22.3 25.5998H18.7C18.2032 25.5998 17.8 25.1978 17.8 24.6998V17.4991C17.8 16.7829 17.5155 16.0961 17.0092 15.5897C16.5028 15.0833 15.8161 14.7989 15.1 14.7989H10.9C10.1839 14.7989 9.49716 15.0833 8.99081 15.5897C8.48446 16.0961 8.2 16.7829 8.2 17.4991V24.6998C8.2 24.9385 8.10518 25.1674 7.9364 25.3362C7.76761 25.505 7.5387 25.5998 7.3 25.5998H5.8H3.7C3.2032 25.5998 2.8 25.1978 2.8 24.6998V11.1625C2.80005 11.0277 2.83037 10.8946 2.88874 10.7731C2.9471 10.6516 3.03201 10.5448 3.1372 10.4605L5.8 8.32384L12.4372 2.99818C12.5969 2.87021 12.7954 2.80048 13 2.80048C13.2046 2.80048 13.4031 2.87021 13.5628 2.99818L19.4996 7.76124ZM11.3104 1.59405C11.7896 1.20955 12.3856 1 13 1C13.6144 1 14.2104 1.20955 14.6896 1.59405L23.9896 9.05633C24.3049 9.30935 24.5594 9.62996 24.7343 9.9945C24.9092 10.359 25 10.7582 25 11.1625V24.6998C25 25.4159 24.7155 26.1027 24.2092 26.6091C23.7028 27.1155 23.0161 27.4 22.3 27.4H18.7C17.9839 27.4 17.2972 27.1155 16.7908 26.6091C16.2845 26.1027 16 25.4159 16 24.6998V17.4991C16 17.2604 15.9052 17.0314 15.7364 16.8626C15.5676 16.6938 15.3387 16.599 15.1 16.599H10.9C10.6613 16.599 10.4324 16.6938 10.2636 16.8626C10.0948 17.0314 10 17.2604 10 17.4991V24.6998C10 25.4159 9.71554 26.1027 9.20919 26.6091C8.70284 27.1155 8.01608 27.4 7.3 27.4H3.7C2.98412 27.4 2.29755 27.1157 1.79124 26.6095C1.28492 26.1034 1.00032 25.4169 1 24.701V11.1637C1 10.3452 1.372 9.56998 2.0104 9.05753L11.3104 1.59405Z" stroke="white" stroke-width="1.5"/>
<path d="M5.5 25V8.5M9.5 15.5V5.5M20.5 25V8M16.5 15.5V5.5M13 15.5V3.5" stroke="white" stroke-width="6"/>
</svg>
