<svg width="26" height="27" viewBox="0 0 26 27" fill="none" xmlns="http://www.w3.org/2000/svg">
<path d="M0 2.47181C0 1.10555 1.09036 0 2.43746 0H4.06243C5.40628 0 6.49826 1.10555 6.49826 2.47181V23.893C6.49826 25.2576 5.40628 26.3632 4.06081 26.3632H2.43583C1.09036 26.3632 0 25.2576 0 23.893V2.47181ZM2.43746 1.64677C2.22197 1.64677 2.01531 1.73369 1.86294 1.88842C1.71057 2.04314 1.62497 2.25299 1.62497 2.47181V23.893C1.6254 24.1116 1.71119 24.321 1.86352 24.4753C2.01584 24.6297 2.22225 24.7164 2.43746 24.7164H4.06243C4.27763 24.716 4.48388 24.6289 4.63589 24.4742C4.78791 24.3195 4.87329 24.1099 4.87329 23.8914V2.47346C4.87329 2.25464 4.78769 2.04479 4.63532 1.89007C4.48295 1.73534 4.27629 1.64842 4.06081 1.64842L2.43746 1.64677ZM8.12161 2.47181C8.12161 1.10555 9.21359 0 10.5591 0H12.184C13.5295 0 14.6199 1.10555 14.6199 2.47181V23.893C14.6199 25.2576 13.5295 26.3632 12.1824 26.3632H10.5574C9.21359 26.3632 8.12161 25.2576 8.12161 23.893V2.47181ZM10.5591 1.64677C10.3436 1.64677 10.1369 1.73369 9.98455 1.88842C9.83218 2.04314 9.74658 2.25299 9.74658 2.47181V23.893C9.74701 24.1116 9.8328 24.321 9.98513 24.4753C10.1375 24.6297 10.3439 24.7164 10.5591 24.7164H12.184C12.3995 24.7164 12.6062 24.6295 12.7586 24.4748C12.9109 24.32 12.9965 24.1102 12.9965 23.8914V2.47346C12.9965 2.25464 12.9109 2.04479 12.7586 1.89007C12.6062 1.73534 12.3995 1.64842 12.184 1.64842L10.5591 1.64677ZM22.2914 6.85934C22.2171 6.5327 22.0783 6.22478 21.8833 5.95425C21.6884 5.68372 21.4413 5.45623 21.1572 5.28557C20.873 5.11492 20.5577 5.00465 20.2303 4.96147C19.9029 4.91829 19.5703 4.94309 19.2527 5.03437L18.0421 5.38088C17.451 5.55067 16.9449 5.94112 16.6255 6.47392C16.306 7.00672 16.1968 7.64247 16.3196 8.25365L19.5744 24.4243C19.6409 24.7521 19.7722 25.0627 19.9602 25.3375C20.1483 25.6122 20.3892 25.8454 20.6686 26.0229C20.9479 26.2005 21.2598 26.3186 21.5853 26.3703C21.9109 26.422 22.2434 26.4061 22.5627 26.3236L24.1633 25.9111C25.4471 25.581 26.2335 24.2709 25.9378 22.9624L22.2914 6.85934ZM19.6947 6.62008C19.8005 6.58947 19.9114 6.58103 20.0206 6.59527C20.1298 6.60952 20.235 6.64614 20.3299 6.70293C20.4247 6.75972 20.5072 6.83548 20.5723 6.92563C20.6374 7.01577 20.6838 7.11841 20.7086 7.22731L24.3535 23.332C24.4003 23.5416 24.3646 23.7616 24.2541 23.9449C24.1437 24.1283 23.9671 24.2606 23.762 24.3138L22.1614 24.7263C22.055 24.7538 21.9442 24.7592 21.8358 24.742C21.7273 24.7249 21.6234 24.6856 21.5303 24.6265C21.4372 24.5674 21.3569 24.4898 21.2941 24.3984C21.2314 24.3069 21.1876 24.2035 21.1653 24.0943L17.9104 7.92364C17.8699 7.72009 17.9064 7.50849 18.0127 7.33109C18.1191 7.15369 18.2874 7.02353 18.4841 6.9666L19.6947 6.62008Z" fill="white"/>
</svg>
