<svg width="16" height="16" viewBox="0 0 16 16" fill="none" xmlns="http://www.w3.org/2000/svg">
<path d="M11.2407 2C9.85111 2 8.65333 2.66457 8 3.76543C7.34667 2.66457 6.14889 2 4.75926 2C3.76261 2.00121 2.80713 2.40012 2.10239 3.10923C1.39765 3.81835 1.0012 4.77977 1 5.78261C1 7.64717 2.16667 9.59587 4.46111 11.5733C5.52051 12.4804 6.66439 13.2826 7.87685 13.9687C7.91469 13.9892 7.95701 14 8 14C8.04299 14 8.08531 13.9892 8.12315 13.9687C9.33561 13.2826 10.4795 12.4804 11.5389 11.5733C13.8333 9.59587 15 7.64717 15 5.78261C14.9988 4.77977 14.6023 3.81835 13.8976 3.10923C13.1929 2.40012 12.2374 2.00121 11.2407 2ZM8 13.4404C7.09259 12.9213 1.51852 9.56978 1.51852 5.78261C1.51955 4.91809 1.86131 4.08928 2.46885 3.47797C3.07638 2.86666 3.90008 2.52277 4.75926 2.52174C6.1275 2.52174 7.27731 3.25935 7.76019 4.4463C7.77972 4.49415 7.81295 4.53507 7.85565 4.56387C7.89835 4.59267 7.94859 4.60805 8 4.60805C8.05141 4.60805 8.10165 4.59267 8.14435 4.56387C8.18705 4.53507 8.22028 4.49415 8.23981 4.4463C8.72268 3.25935 9.8725 2.52174 11.2407 2.52174C12.0999 2.52277 12.9236 2.86666 13.5312 3.47797C14.1387 4.08928 14.4805 4.91809 14.4815 5.78261C14.4815 9.56521 8.90741 12.9213 8 13.4404Z" fill="white"/>
</svg>
