<svg width="18" height="18" viewBox="0 0 18 18" fill="none" xmlns="http://www.w3.org/2000/svg">
<path d="M8.31133 2.47398C7.86226 2.00882 7.32667 1.63897 6.73567 1.38594C6.14468 1.1329 5.51007 1.00172 4.86874 1.00002C4.2274 0.998315 3.59213 1.12613 2.99984 1.37603C2.40755 1.62592 1.87006 1.99292 1.41861 2.45569C-0.480346 4.40427 -0.471346 7.57113 1.43661 9.52885L8.49808 16.7746C8.79057 17.0751 9.26531 17.0751 9.5578 16.7746L16.5833 9.56999C17.4947 8.62494 18.0036 7.35359 18 6.03057C17.9964 4.70755 17.4807 3.43906 16.5641 2.49912C16.1146 2.03307 15.5783 1.66251 14.9865 1.40901C14.3947 1.15551 13.7591 1.02414 13.1168 1.02255C12.4745 1.02095 11.8383 1.14916 11.2453 1.39972C10.6523 1.65027 10.1142 2.01816 9.66242 2.48198L8.99194 3.17112L8.31133 2.47398Z" fill="#EF759A"/>
</svg>
