<svg width="18" height="18" viewBox="0 0 18 18" fill="none" xmlns="http://www.w3.org/2000/svg">
<path d="M9.5578 16.7746L16.5833 9.57021C17.4947 8.6252 18.0036 7.35389 18 6.03091C17.9964 4.70792 17.4807 3.43947 16.5641 2.49956C16.1145 2.03366 15.5782 1.66323 14.9864 1.40983C14.3946 1.15643 13.7591 1.02511 13.1168 1.02352C12.4746 1.02192 11.8384 1.15008 11.2454 1.40054C10.6524 1.651 10.1143 2.01876 9.66242 2.48242L8.99194 3.17154L8.31133 2.47442C7.86234 2.00913 7.32677 1.63918 6.73577 1.38606C6.14476 1.13294 5.51012 1.00172 4.86874 1.00002C4.22736 0.998315 3.59205 1.12617 2.99975 1.37615C2.40745 1.62613 1.86999 1.99324 1.41861 2.45613C-0.480346 4.40465 -0.471346 7.57141 1.43661 9.52907L8.49808 16.7746C8.79057 17.0751 9.26531 17.0751 9.5578 16.7746ZM10.4623 3.28582C10.8096 2.92969 11.2232 2.64734 11.6789 2.4552C12.1347 2.26306 12.6236 2.16499 13.1171 2.16669C13.6105 2.16839 14.0987 2.26983 14.5532 2.46511C15.0077 2.66039 15.4194 2.94559 15.7643 3.30411C16.4721 4.03019 16.8707 5.00981 16.8741 6.03172C16.8775 7.05362 16.4853 8.03592 15.7823 8.76681V8.76909L9.02794 15.6946L2.23534 8.72452C0.758251 7.20914 0.757126 4.75892 2.21847 3.25954C2.56532 2.90407 2.97831 2.62224 3.43341 2.43047C3.88851 2.2387 4.37661 2.14082 4.8693 2.14252C5.36199 2.14422 5.84943 2.24548 6.30323 2.44039C6.75704 2.63529 7.16814 2.91996 7.5126 3.27782L8.59257 4.38636C8.64488 4.44009 8.70717 4.48275 8.77581 4.51186C8.84446 4.54097 8.91811 4.55596 8.9925 4.55596C9.06689 4.55596 9.14054 4.54097 9.20919 4.51186C9.27784 4.48275 9.34012 4.44009 9.39243 4.38636L10.4623 3.28582Z" fill="white"/>
</svg>
