<svg width="68" height="68" viewBox="0 0 68 68" fill="none" xmlns="http://www.w3.org/2000/svg">
<path d="M62 2.5V37.7653" stroke="#EF759A" stroke-width="4" stroke-linecap="round"/>
<path d="M55 12.2959L55 29.6137" stroke="#EF759A" stroke-width="4" stroke-linecap="round"/>
<path d="M41 14.2551V27.4796" stroke="#EF759A" stroke-width="4" stroke-linecap="round"/>
<path d="M48 5.98975L48 35.7448" stroke="#EF759A" stroke-width="4" stroke-linecap="round"/>
<path d="M34 12.2085L34 29.5263" stroke="#EF759A" stroke-width="4" stroke-linecap="round"/>
<path d="M27 3.23468V38.5" stroke="#EF759A" stroke-width="4" stroke-linecap="round"/>
<path d="M20 6.69824L20 35.0364" stroke="#EF759A" stroke-width="4" stroke-linecap="round"/>
<path d="M13 12.2085L13 29.5263" stroke="#EF759A" stroke-width="4" stroke-linecap="round"/>
<path d="M6 14.2551L6 27.4796" stroke="#EF759A" stroke-width="4" stroke-linecap="round"/>
<path d="M2.73098 56.5C2.39498 56.5 2.11298 56.392 1.88498 56.176C1.66898 55.948 1.56098 55.666 1.56098 55.33V50.326C1.56098 50.014 1.66898 49.75 1.88498 49.534C2.10098 49.318 2.36498 49.21 2.67698 49.21H4.40498C5.07698 49.21 5.61698 49.396 6.02498 49.768C6.43298 50.128 6.63698 50.572 6.63698 51.1C6.63698 51.664 6.45098 52.114 6.07898 52.45C6.72698 52.786 7.05098 53.362 7.05098 54.178C7.05098 54.862 6.82898 55.42 6.38498 55.852C5.94098 56.284 5.34698 56.5 4.60298 56.5H2.73098ZM3.41498 55.06H4.67498C4.91498 55.06 5.11298 54.988 5.26898 54.844C5.43698 54.7 5.52098 54.49 5.52098 54.214C5.52098 53.938 5.44298 53.728 5.28698 53.584C5.13098 53.44 4.92698 53.368 4.67498 53.368H3.41498C3.23498 53.368 3.14498 53.458 3.14498 53.638V54.79C3.14498 54.97 3.23498 55.06 3.41498 55.06ZM3.41498 52H4.40498C4.62098 52 4.78898 51.928 4.90898 51.784C5.02898 51.64 5.08898 51.484 5.08898 51.316C5.08898 51.148 5.02898 50.998 4.90898 50.866C4.78898 50.722 4.62098 50.65 4.40498 50.65H3.41498C3.23498 50.65 3.14498 50.74 3.14498 50.92V51.73C3.14498 51.91 3.23498 52 3.41498 52ZM9.48098 56.5C9.13298 56.5 8.85098 56.392 8.63498 56.176C8.41898 55.96 8.31098 55.678 8.31098 55.33V50.326C8.31098 49.978 8.41298 49.708 8.61698 49.516C8.82098 49.312 9.09098 49.21 9.42698 49.21H12.145C12.649 49.21 12.901 49.45 12.901 49.93C12.901 50.134 12.829 50.308 12.685 50.452C12.541 50.584 12.361 50.65 12.145 50.65H10.291C10.051 50.65 9.93098 50.77 9.93098 51.01V51.73C9.93098 51.97 10.051 52.09 10.291 52.09H11.875C12.115 52.09 12.301 52.156 12.433 52.288C12.565 52.42 12.631 52.594 12.631 52.81C12.631 53.002 12.553 53.17 12.397 53.314C12.253 53.458 12.079 53.53 11.875 53.53H10.291C10.051 53.53 9.93098 53.65 9.93098 53.89V54.682C9.93098 54.922 10.051 55.042 10.291 55.042H12.325C12.553 55.042 12.733 55.108 12.865 55.24C13.009 55.372 13.081 55.552 13.081 55.78C13.081 55.984 13.009 56.158 12.865 56.302C12.721 56.434 12.541 56.5 12.325 56.5H9.48098ZM14.6103 56.68C14.4183 56.68 14.2323 56.608 14.0523 56.464C13.8843 56.32 13.8003 56.134 13.8003 55.906C13.8003 55.81 13.8183 55.708 13.8543 55.6L16.1223 49.678C16.2063 49.462 16.3443 49.3 16.5363 49.192C16.7283 49.084 16.9263 49.03 17.1303 49.03C17.3463 49.03 17.5503 49.084 17.7423 49.192C17.9463 49.3 18.0903 49.462 18.1743 49.678L20.6043 55.564C20.6283 55.612 20.6403 55.66 20.6403 55.708C20.6403 55.756 20.6403 55.804 20.6403 55.852C20.6403 56.104 20.5563 56.302 20.3883 56.446C20.2203 56.59 20.0343 56.662 19.8303 56.662C19.6863 56.662 19.5423 56.62 19.3983 56.536C19.2663 56.464 19.1703 56.344 19.1103 56.176L18.5883 54.772C18.5763 54.7 18.5283 54.664 18.4443 54.664H16.0143C15.9303 54.664 15.8763 54.7 15.8523 54.772L15.3483 56.194C15.2643 56.35 15.1563 56.47 15.0243 56.554C14.8923 56.638 14.7543 56.68 14.6103 56.68ZM16.6623 53.26H17.7243C17.7963 53.26 17.8503 53.236 17.8863 53.188C17.9343 53.128 17.9463 53.056 17.9223 52.972L17.4543 51.694C17.3823 51.502 17.2923 51.406 17.1843 51.406C17.0763 51.406 16.9863 51.508 16.9143 51.712L16.4643 52.99C16.4403 53.062 16.4463 53.128 16.4823 53.188C16.5183 53.236 16.5783 53.26 16.6623 53.26ZM23.6061 56.68C23.3781 56.68 23.1861 56.614 23.0301 56.482C22.8741 56.338 22.7961 56.152 22.7961 55.924V51.226C22.7961 50.866 22.6161 50.686 22.2561 50.686H21.3741C21.1581 50.686 20.9781 50.62 20.8341 50.488C20.7021 50.344 20.6361 50.164 20.6361 49.948C20.6361 49.732 20.7021 49.558 20.8341 49.426C20.9781 49.282 21.1581 49.21 21.3741 49.21H25.8201C26.0481 49.21 26.2281 49.282 26.3601 49.426C26.5041 49.558 26.5761 49.732 26.5761 49.948C26.5761 50.164 26.5041 50.344 26.3601 50.488C26.2281 50.62 26.0481 50.686 25.8201 50.686H24.9561C24.5961 50.686 24.4161 50.866 24.4161 51.226V55.924C24.4161 56.152 24.3381 56.338 24.1821 56.482C24.0381 56.614 23.8461 56.68 23.6061 56.68ZM32.3325 56.5C31.9965 56.5 31.7145 56.392 31.4865 56.176C31.2705 55.948 31.1625 55.666 31.1625 55.33V50.326C31.1625 50.014 31.2705 49.75 31.4865 49.534C31.7025 49.318 31.9665 49.21 32.2785 49.21H34.0065C34.6785 49.21 35.2185 49.396 35.6265 49.768C36.0345 50.128 36.2385 50.572 36.2385 51.1C36.2385 51.664 36.0525 52.114 35.6805 52.45C36.3285 52.786 36.6525 53.362 36.6525 54.178C36.6525 54.862 36.4305 55.42 35.9865 55.852C35.5425 56.284 34.9485 56.5 34.2045 56.5H32.3325ZM33.0165 55.06H34.2765C34.5165 55.06 34.7145 54.988 34.8705 54.844C35.0385 54.7 35.1225 54.49 35.1225 54.214C35.1225 53.938 35.0445 53.728 34.8885 53.584C34.7325 53.44 34.5285 53.368 34.2765 53.368H33.0165C32.8365 53.368 32.7465 53.458 32.7465 53.638V54.79C32.7465 54.97 32.8365 55.06 33.0165 55.06ZM33.0165 52H34.0065C34.2225 52 34.3905 51.928 34.5105 51.784C34.6305 51.64 34.6905 51.484 34.6905 51.316C34.6905 51.148 34.6305 50.998 34.5105 50.866C34.3905 50.722 34.2225 50.65 34.0065 50.65H33.0165C32.8365 50.65 32.7465 50.74 32.7465 50.92V51.73C32.7465 51.91 32.8365 52 33.0165 52ZM42.5925 49.894C42.5925 49.678 42.6705 49.498 42.8265 49.354C42.9825 49.198 43.1745 49.12 43.4025 49.12C43.6305 49.12 43.8225 49.192 43.9785 49.336C44.1345 49.48 44.2125 49.666 44.2125 49.894V53.8C44.2125 54.676 43.9245 55.378 43.3485 55.906C42.7725 56.422 42.0045 56.68 41.0445 56.68C40.0965 56.68 39.3345 56.422 38.7585 55.906C38.1945 55.378 37.9125 54.676 37.9125 53.8V49.894C37.9125 49.666 37.9845 49.486 38.1285 49.354C38.2845 49.21 38.4825 49.138 38.7225 49.138C38.9625 49.138 39.1545 49.21 39.2985 49.354C39.4545 49.486 39.5325 49.666 39.5325 49.894V53.8C39.5325 54.22 39.6705 54.562 39.9465 54.826C40.2225 55.078 40.5885 55.204 41.0445 55.204C41.5125 55.204 41.8845 55.078 42.1605 54.826C42.4485 54.562 42.5925 54.22 42.5925 53.8V49.894ZM47.0643 56.5C46.6923 56.5 46.3923 56.398 46.1643 56.194C45.9483 55.978 45.8403 55.696 45.8403 55.348V50.326C45.8403 49.978 45.9423 49.708 46.1463 49.516C46.3503 49.312 46.6203 49.21 46.9563 49.21H48.5943C49.3863 49.21 50.0583 49.372 50.6103 49.696C51.1623 50.008 51.5823 50.44 51.8703 50.992C52.1703 51.532 52.3203 52.15 52.3203 52.846C52.3203 53.566 52.1703 54.202 51.8703 54.754C51.5703 55.306 51.1623 55.738 50.6463 56.05C50.1303 56.35 49.5543 56.5 48.9183 56.5H47.0643ZM47.9103 55.06H48.6123C49.2963 55.06 49.8183 54.868 50.1783 54.484C50.5383 54.088 50.7123 53.542 50.7003 52.846C50.6883 52.126 50.5023 51.58 50.1423 51.208C49.7823 50.836 49.2663 50.65 48.5943 50.65H47.9103C47.6103 50.65 47.4603 50.8 47.4603 51.1V54.61C47.4603 54.91 47.6103 55.06 47.9103 55.06ZM54.7986 56.5C54.4266 56.5 54.1266 56.398 53.8986 56.194C53.6826 55.978 53.5746 55.696 53.5746 55.348V50.326C53.5746 49.978 53.6766 49.708 53.8806 49.516C54.0846 49.312 54.3546 49.21 54.6906 49.21H56.3286C57.1206 49.21 57.7926 49.372 58.3446 49.696C58.8966 50.008 59.3166 50.44 59.6046 50.992C59.9046 51.532 60.0546 52.15 60.0546 52.846C60.0546 53.566 59.9046 54.202 59.6046 54.754C59.3046 55.306 58.8966 55.738 58.3806 56.05C57.8646 56.35 57.2886 56.5 56.6526 56.5H54.7986ZM55.6446 55.06H56.3466C57.0306 55.06 57.5526 54.868 57.9126 54.484C58.2726 54.088 58.4466 53.542 58.4346 52.846C58.4226 52.126 58.2366 51.58 57.8766 51.208C57.5166 50.836 57.0006 50.65 56.3286 50.65H55.6446C55.3446 50.65 55.1946 50.8 55.1946 51.1V54.61C55.1946 54.91 55.3446 55.06 55.6446 55.06ZM63.7454 56.68C63.5174 56.68 63.3254 56.614 63.1694 56.482C63.0134 56.338 62.9354 56.152 62.9354 55.924V54.034C62.9354 53.902 62.9234 53.776 62.8994 53.656C62.8874 53.524 62.8394 53.398 62.7554 53.278L60.7394 50.38C60.6434 50.224 60.5954 50.08 60.5954 49.948C60.5954 49.72 60.6794 49.528 60.8474 49.372C61.0154 49.204 61.2134 49.12 61.4414 49.12C61.7294 49.12 61.9454 49.24 62.0894 49.48L63.4214 51.586C63.5294 51.754 63.6434 51.838 63.7634 51.838C63.8834 51.838 63.9974 51.754 64.1054 51.586L65.4014 49.48C65.5454 49.24 65.7614 49.12 66.0494 49.12C66.2894 49.12 66.4874 49.204 66.6434 49.372C66.8114 49.528 66.8954 49.72 66.8954 49.948C66.8954 50.08 66.8474 50.224 66.7514 50.38L64.7354 53.278C64.6514 53.398 64.5974 53.524 64.5734 53.656C64.5614 53.776 64.5554 53.902 64.5554 54.034V55.924C64.5554 56.152 64.4774 56.338 64.3214 56.482C64.1774 56.614 63.9854 56.68 63.7454 56.68Z" fill="white"/>
</svg>
