<svg width="60" height="60" viewBox="0 0 60 60" fill="none" xmlns="http://www.w3.org/2000/svg">
<path d="M57 4.5V28.0102" stroke="#43A1D5" stroke-width="4" stroke-linecap="round"/>
<path d="M50.25 11.0306L50.25 22.5758" stroke="#43A1D5" stroke-width="4" stroke-linecap="round"/>
<path d="M36.75 12.3367V21.1531" stroke="#43A1D5" stroke-width="4" stroke-linecap="round"/>
<path d="M43.5 6.82648L43.5 26.6632" stroke="#43A1D5" stroke-width="4" stroke-linecap="round"/>
<path d="M30 10.9723L30 22.5175" stroke="#43A1D5" stroke-width="4" stroke-linecap="round"/>
<path d="M23.25 4.98981V28.5" stroke="#43A1D5" stroke-width="4" stroke-linecap="round"/>
<path d="M16.5 7.29877L16.5 26.1909" stroke="#43A1D5" stroke-width="4" stroke-linecap="round"/>
<path d="M9.75 10.9723L9.75 22.5175" stroke="#43A1D5" stroke-width="4" stroke-linecap="round"/>
<path d="M3 12.3367L3 21.1531" stroke="#43A1D5" stroke-width="4" stroke-linecap="round"/>
<path d="M2.20531 46.5C1.90665 46.5 1.65598 46.404 1.45331 46.212C1.26131 46.0093 1.16531 45.7587 1.16531 45.46V41.012C1.16531 40.7347 1.26131 40.5 1.45331 40.308C1.64531 40.116 1.87998 40.02 2.15731 40.02H3.69331C4.29065 40.02 4.77065 40.1853 5.13331 40.516C5.49598 40.836 5.67731 41.2307 5.67731 41.7C5.67731 42.2013 5.51198 42.6013 5.18131 42.9C5.75731 43.1987 6.04531 43.7107 6.04531 44.436C6.04531 45.044 5.84798 45.54 5.45331 45.924C5.05865 46.308 4.53065 46.5 3.86931 46.5H2.20531ZM2.81331 45.22H3.93331C4.14665 45.22 4.32265 45.156 4.46131 45.028C4.61065 44.9 4.68531 44.7133 4.68531 44.468C4.68531 44.2227 4.61598 44.036 4.47731 43.908C4.33865 43.78 4.15731 43.716 3.93331 43.716H2.81331C2.65331 43.716 2.57331 43.796 2.57331 43.956V44.98C2.57331 45.14 2.65331 45.22 2.81331 45.22ZM2.81331 42.5H3.69331C3.88531 42.5 4.03465 42.436 4.14131 42.308C4.24798 42.18 4.30131 42.0413 4.30131 41.892C4.30131 41.7427 4.24798 41.6093 4.14131 41.492C4.03465 41.364 3.88531 41.3 3.69331 41.3H2.81331C2.65331 41.3 2.57331 41.38 2.57331 41.54V42.26C2.57331 42.42 2.65331 42.5 2.81331 42.5ZM8.20531 46.5C7.89598 46.5 7.64531 46.404 7.45331 46.212C7.26131 46.02 7.16531 45.7693 7.16531 45.46V41.012C7.16531 40.7027 7.25598 40.4627 7.43731 40.292C7.61865 40.1107 7.85865 40.02 8.15731 40.02H10.5733C11.0213 40.02 11.2453 40.2333 11.2453 40.66C11.2453 40.8413 11.1813 40.996 11.0533 41.124C10.9253 41.2413 10.7653 41.3 10.5733 41.3H8.92531C8.71198 41.3 8.60531 41.4067 8.60531 41.62V42.26C8.60531 42.4733 8.71198 42.58 8.92531 42.58H10.3333C10.5466 42.58 10.712 42.6387 10.8293 42.756C10.9466 42.8733 11.0053 43.028 11.0053 43.22C11.0053 43.3907 10.936 43.54 10.7973 43.668C10.6693 43.796 10.5146 43.86 10.3333 43.86H8.92531C8.71198 43.86 8.60531 43.9667 8.60531 44.18V44.884C8.60531 45.0973 8.71198 45.204 8.92531 45.204H10.7333C10.936 45.204 11.096 45.2627 11.2133 45.38C11.3413 45.4973 11.4053 45.6573 11.4053 45.86C11.4053 46.0413 11.3413 46.196 11.2133 46.324C11.0853 46.4413 10.9253 46.5 10.7333 46.5H8.20531ZM12.7647 46.66C12.594 46.66 12.4287 46.596 12.2687 46.468C12.1194 46.34 12.0447 46.1747 12.0447 45.972C12.0447 45.8867 12.0607 45.796 12.0927 45.7L14.1087 40.436C14.1834 40.244 14.306 40.1 14.4767 40.004C14.6474 39.908 14.8234 39.86 15.0047 39.86C15.1967 39.86 15.378 39.908 15.5487 40.004C15.73 40.1 15.858 40.244 15.9327 40.436L18.0927 45.668C18.114 45.7107 18.1247 45.7533 18.1247 45.796C18.1247 45.8387 18.1247 45.8813 18.1247 45.924C18.1247 46.148 18.05 46.324 17.9007 46.452C17.7514 46.58 17.586 46.644 17.4047 46.644C17.2767 46.644 17.1487 46.6067 17.0207 46.532C16.9034 46.468 16.818 46.3613 16.7647 46.212L16.3007 44.964C16.29 44.9 16.2474 44.868 16.1727 44.868H14.0127C13.938 44.868 13.89 44.9 13.8687 44.964L13.4207 46.228C13.346 46.3667 13.25 46.4733 13.1327 46.548C13.0154 46.6227 12.8927 46.66 12.7647 46.66ZM14.5887 43.62H15.5327C15.5967 43.62 15.6447 43.5987 15.6767 43.556C15.7194 43.5027 15.73 43.4387 15.7087 43.364L15.2927 42.228C15.2287 42.0573 15.1487 41.972 15.0527 41.972C14.9567 41.972 14.8767 42.0627 14.8127 42.244L14.4127 43.38C14.3914 43.444 14.3967 43.5027 14.4287 43.556C14.4607 43.5987 14.514 43.62 14.5887 43.62ZM20.7609 46.66C20.5583 46.66 20.3876 46.6013 20.2489 46.484C20.1103 46.356 20.0409 46.1907 20.0409 45.988V41.812C20.0409 41.492 19.8809 41.332 19.5609 41.332H18.7769C18.5849 41.332 18.4249 41.2733 18.2969 41.156C18.1796 41.028 18.1209 40.868 18.1209 40.676C18.1209 40.484 18.1796 40.3293 18.2969 40.212C18.4249 40.084 18.5849 40.02 18.7769 40.02H22.7289C22.9316 40.02 23.0916 40.084 23.2089 40.212C23.3369 40.3293 23.4009 40.484 23.4009 40.676C23.4009 40.868 23.3369 41.028 23.2089 41.156C23.0916 41.2733 22.9316 41.332 22.7289 41.332H21.9609C21.6409 41.332 21.4809 41.492 21.4809 41.812V45.988C21.4809 46.1907 21.4116 46.356 21.2729 46.484C21.1449 46.6013 20.9743 46.66 20.7609 46.66ZM28.5178 46.5C28.2191 46.5 27.9685 46.404 27.7658 46.212C27.5738 46.0093 27.4778 45.7587 27.4778 45.46V41.012C27.4778 40.7347 27.5738 40.5 27.7658 40.308C27.9578 40.116 28.1925 40.02 28.4698 40.02H30.0058C30.6031 40.02 31.0831 40.1853 31.4458 40.516C31.8085 40.836 31.9898 41.2307 31.9898 41.7C31.9898 42.2013 31.8245 42.6013 31.4938 42.9C32.0698 43.1987 32.3578 43.7107 32.3578 44.436C32.3578 45.044 32.1605 45.54 31.7658 45.924C31.3711 46.308 30.8431 46.5 30.1818 46.5H28.5178ZM29.1258 45.22H30.2458C30.4591 45.22 30.6351 45.156 30.7738 45.028C30.9231 44.9 30.9978 44.7133 30.9978 44.468C30.9978 44.2227 30.9285 44.036 30.7898 43.908C30.6511 43.78 30.4698 43.716 30.2458 43.716H29.1258C28.9658 43.716 28.8858 43.796 28.8858 43.956V44.98C28.8858 45.14 28.9658 45.22 29.1258 45.22ZM29.1258 42.5H30.0058C30.1978 42.5 30.3471 42.436 30.4538 42.308C30.5605 42.18 30.6138 42.0413 30.6138 41.892C30.6138 41.7427 30.5605 41.6093 30.4538 41.492C30.3471 41.364 30.1978 41.3 30.0058 41.3H29.1258C28.9658 41.3 28.8858 41.38 28.8858 41.54V42.26C28.8858 42.42 28.9658 42.5 29.1258 42.5ZM37.6378 40.628C37.6378 40.436 37.7071 40.276 37.8458 40.148C37.9845 40.0093 38.1551 39.94 38.3578 39.94C38.5605 39.94 38.7311 40.004 38.8698 40.132C39.0085 40.26 39.0778 40.4253 39.0778 40.628V44.1C39.0778 44.8787 38.8218 45.5027 38.3098 45.972C37.7978 46.4307 37.1151 46.66 36.2618 46.66C35.4191 46.66 34.7418 46.4307 34.2298 45.972C33.7285 45.5027 33.4778 44.8787 33.4778 44.1V40.628C33.4778 40.4253 33.5418 40.2653 33.6698 40.148C33.8085 40.02 33.9845 39.956 34.1978 39.956C34.4111 39.956 34.5818 40.02 34.7098 40.148C34.8485 40.2653 34.9178 40.4253 34.9178 40.628V44.1C34.9178 44.4733 35.0405 44.7773 35.2858 45.012C35.5311 45.236 35.8565 45.348 36.2618 45.348C36.6778 45.348 37.0085 45.236 37.2538 45.012C37.5098 44.7773 37.6378 44.4733 37.6378 44.1V40.628ZM41.6127 46.5C41.282 46.5 41.0154 46.4093 40.8127 46.228C40.6207 46.036 40.5247 45.7853 40.5247 45.476V41.012C40.5247 40.7027 40.6154 40.4627 40.7967 40.292C40.978 40.1107 41.218 40.02 41.5167 40.02H42.9727C43.6767 40.02 44.274 40.164 44.7647 40.452C45.2554 40.7293 45.6287 41.1133 45.8847 41.604C46.1514 42.084 46.2847 42.6333 46.2847 43.252C46.2847 43.892 46.1514 44.4573 45.8847 44.948C45.618 45.4387 45.2554 45.8227 44.7967 46.1C44.338 46.3667 43.826 46.5 43.2607 46.5H41.6127ZM42.3647 45.22H42.9887C43.5967 45.22 44.0607 45.0493 44.3807 44.708C44.7007 44.356 44.8554 43.8707 44.8447 43.252C44.834 42.612 44.6687 42.1267 44.3487 41.796C44.0287 41.4653 43.57 41.3 42.9727 41.3H42.3647C42.098 41.3 41.9647 41.4333 41.9647 41.7V44.82C41.9647 45.0867 42.098 45.22 42.3647 45.22ZM48.4877 46.5C48.157 46.5 47.8904 46.4093 47.6877 46.228C47.4957 46.036 47.3997 45.7853 47.3997 45.476V41.012C47.3997 40.7027 47.4904 40.4627 47.6717 40.292C47.853 40.1107 48.093 40.02 48.3917 40.02H49.8477C50.5517 40.02 51.149 40.164 51.6397 40.452C52.1304 40.7293 52.5037 41.1133 52.7597 41.604C53.0264 42.084 53.1597 42.6333 53.1597 43.252C53.1597 43.892 53.0264 44.4573 52.7597 44.948C52.493 45.4387 52.1304 45.8227 51.6717 46.1C51.213 46.3667 50.701 46.5 50.1357 46.5H48.4877ZM49.2397 45.22H49.8637C50.4717 45.22 50.9357 45.0493 51.2557 44.708C51.5757 44.356 51.7304 43.8707 51.7197 43.252C51.709 42.612 51.5437 42.1267 51.2237 41.796C50.9037 41.4653 50.445 41.3 49.8477 41.3H49.2397C48.973 41.3 48.8397 41.4333 48.8397 41.7V44.82C48.8397 45.0867 48.973 45.22 49.2397 45.22ZM56.4403 46.66C56.2376 46.66 56.067 46.6013 55.9283 46.484C55.7896 46.356 55.7203 46.1907 55.7203 45.988V44.308C55.7203 44.1907 55.7096 44.0787 55.6883 43.972C55.6776 43.8547 55.635 43.7427 55.5603 43.636L53.7683 41.06C53.683 40.9213 53.6403 40.7933 53.6403 40.676C53.6403 40.4733 53.715 40.3027 53.8643 40.164C54.0136 40.0147 54.1896 39.94 54.3923 39.94C54.6483 39.94 54.8403 40.0467 54.9683 40.26L56.1523 42.132C56.2483 42.2813 56.3496 42.356 56.4563 42.356C56.563 42.356 56.6643 42.2813 56.7603 42.132L57.9123 40.26C58.0403 40.0467 58.2323 39.94 58.4883 39.94C58.7016 39.94 58.8776 40.0147 59.0163 40.164C59.1656 40.3027 59.2403 40.4733 59.2403 40.676C59.2403 40.7933 59.1976 40.9213 59.1123 41.06L57.3203 43.636C57.2456 43.7427 57.1976 43.8547 57.1763 43.972C57.1656 44.0787 57.1603 44.1907 57.1603 44.308V45.988C57.1603 46.1907 57.091 46.356 56.9523 46.484C56.8243 46.6013 56.6536 46.66 56.4403 46.66Z" fill="#43A1D5"/>
</svg>
