<svg width="16" height="16" viewBox="0 0 16 16" fill="none" xmlns="http://www.w3.org/2000/svg">
<path d="M1 15V3.41246C1 3.06653 1.11274 2.77146 1.33821 2.52724C1.56369 2.28355 1.83669 2.1617 2.15723 2.1617H9.15795C9.47801 2.1617 9.75102 2.28355 9.97697 2.52724C10.2024 2.77094 10.3152 3.06601 10.3152 3.41246V3.60762C10.1757 3.67991 10.0484 3.76252 9.93326 3.85545C9.81861 3.94735 9.70707 4.04804 9.59863 4.15749V3.41246C9.59863 3.27357 9.55731 3.15947 9.47467 3.07014C9.39202 2.98082 9.28645 2.93616 9.15795 2.93616H2.15723C2.02873 2.93616 1.92316 2.98082 1.84052 3.07014C1.75787 3.15947 1.71655 3.27357 1.71655 3.41246V12.2297H9.15795C9.28645 12.2297 9.39202 12.1851 9.47467 12.0958C9.55731 12.0064 9.59863 11.8923 9.59863 11.7534V9.45948C9.70707 9.56894 9.81861 9.66962 9.93326 9.76152C10.0479 9.85446 10.1752 9.93707 10.3152 10.0093V11.7534C10.3152 12.0994 10.2024 12.3944 9.97697 12.6387C9.75149 12.8824 9.47849 13.0042 9.15795 13.0042H2.84656L1 15ZM3.50793 10.2936H5.65759V9.51911H3.50793V10.2936ZM11.7755 8.74465C11.2797 8.74465 10.8571 8.5562 10.5079 8.17929C10.1592 7.80135 9.98485 7.34442 9.98485 6.80849C9.98485 6.27256 10.1592 5.81562 10.5079 5.43768C10.8567 5.06078 11.2794 4.87232 11.7762 4.87232C12.0084 4.87232 12.2047 4.90769 12.3652 4.97843C12.5262 5.04864 12.6879 5.16765 12.8503 5.33545V1H15V1.77446H13.5669V6.80849C13.5669 7.34442 13.3925 7.80135 13.0438 8.17929C12.6946 8.5562 12.2718 8.74465 11.7755 8.74465ZM3.50793 7.97018H7.80725V7.19572H3.50793V7.97018ZM3.50793 5.64679H7.80725V4.87232H3.50793V5.64679Z" fill="white"/>
</svg>
