<svg width="20" height="20" viewBox="0 0 20 20" fill="none" xmlns="http://www.w3.org/2000/svg">
<path d="M10.2265 13.7553C10.8846 13.7553 11.4415 13.5278 11.8972 13.0729C12.3521 12.6173 12.5796 12.0604 12.5796 11.4024V4.66118H15.7927V2.85059H11.6748V9.68353C11.4803 9.47177 11.2622 9.31333 11.0206 9.20824C10.7798 9.10235 10.5151 9.04941 10.2265 9.04941C9.56919 9.04941 9.01269 9.27726 8.55697 9.73294C8.10126 10.1886 7.8738 10.7455 7.87458 11.4035C7.87458 12.0608 8.10204 12.6173 8.55697 13.0729C9.0119 13.5278 9.56762 13.7553 10.2265 13.7553ZM5.42973 16.4706C4.88852 16.4706 4.43673 16.2894 4.07436 15.9271C3.7112 15.5639 3.52962 15.1118 3.52962 14.5706V1.9C3.52962 1.35882 3.7112 0.907059 4.07436 0.544706C4.43673 0.181569 4.88813 0 5.42855 0H18.0999C18.6411 0 19.0929 0.181569 19.4553 0.544706C19.8184 0.907059 20 1.35882 20 1.9V14.5706C20 15.1118 19.8188 15.5639 19.4564 15.9271C19.0933 16.2894 18.6411 16.4706 18.0999 16.4706H5.42973ZM5.42973 15.2941H18.1011C18.2815 15.2941 18.4474 15.2188 18.5987 15.0682C18.7493 14.9169 18.8246 14.751 18.8246 14.5706V1.9C18.8246 1.71961 18.7493 1.55373 18.5987 1.40235C18.4474 1.25176 18.2815 1.17647 18.1011 1.17647H5.42973C5.24933 1.17647 5.08344 1.25176 4.93205 1.40235C4.78146 1.55373 4.70616 1.71961 4.70616 1.9V14.5706C4.70616 14.751 4.78146 14.9169 4.93205 15.0682C5.08344 15.2188 5.24933 15.2941 5.42973 15.2941ZM1.90011 20C1.3589 20 0.907112 19.8188 0.544738 19.4565C0.181579 19.0933 0 18.6412 0 18.1V4.25294H1.17654V18.1C1.17654 18.2804 1.25184 18.4463 1.40244 18.5976C1.55382 18.7482 1.71971 18.8235 1.90011 18.8235H15.748V20H1.90011Z" fill="white"/>
</svg>
