<svg width="16" height="16" viewBox="0 0 16 16" fill="none" xmlns="http://www.w3.org/2000/svg">
<path d="M1 2.48648C1 2.35746 1.04175 2.23372 1.11605 2.14249C1.19036 2.05125 1.29114 2 1.39623 2H13.0189C13.124 2 13.2247 2.05125 13.299 2.14249C13.3733 2.23372 13.4151 2.35746 13.4151 2.48648C13.4151 2.6155 13.3733 2.73924 13.299 2.83047C13.2247 2.92171 13.124 2.97296 13.0189 2.97296H1.39623C1.29114 2.97296 1.19036 2.92171 1.11605 2.83047C1.04175 2.73924 1 2.6155 1 2.48648ZM7.73585 7.18912H1.39623C1.29114 7.18912 1.19036 7.24037 1.11605 7.33161C1.04175 7.42284 1 7.54658 1 7.6756C1 7.80462 1.04175 7.92836 1.11605 8.01959C1.19036 8.11082 1.29114 8.16208 1.39623 8.16208H7.73585C7.84093 8.16208 7.94172 8.11082 8.01602 8.01959C8.09033 7.92836 8.13208 7.80462 8.13208 7.6756C8.13208 7.54658 8.09033 7.42284 8.01602 7.33161C7.94172 7.24037 7.84093 7.18912 7.73585 7.18912ZM7.73585 12.3782H1.39623C1.29114 12.3782 1.19036 12.4295 1.11605 12.5207C1.04175 12.612 1 12.7357 1 12.8647C1 12.9937 1.04175 13.1175 1.11605 13.2087C1.19036 13.2999 1.29114 13.3512 1.39623 13.3512H7.73585C7.84093 13.3512 7.94172 13.2999 8.01602 13.2087C8.09033 13.1175 8.13208 12.9937 8.13208 12.8647C8.13208 12.7357 8.09033 12.612 8.01602 12.5207C7.94172 12.4295 7.84093 12.3782 7.73585 12.3782ZM15 10.2702C15 10.3527 14.9829 10.4339 14.9504 10.5061C14.9178 10.5783 14.8708 10.6391 14.8138 10.6829L10.5874 13.9261C10.5274 13.9721 10.4584 13.9976 10.3877 13.9998C10.317 14.0021 10.2471 13.9811 10.1852 13.939C10.1234 13.8969 10.0718 13.8352 10.0359 13.7603C10 13.6855 9.98111 13.6002 9.98113 13.5134V7.02696C9.98111 6.94011 10 6.85483 10.0359 6.77998C10.0718 6.70514 10.1234 6.64345 10.1852 6.60134C10.2471 6.55922 10.317 6.53821 10.3877 6.54048C10.4584 6.54275 10.5274 6.56823 10.5874 6.61426L14.8138 9.85746C14.8708 9.90121 14.9178 9.96204 14.9504 10.0342C14.9829 10.1064 15 10.1876 15 10.2702ZM13.8562 10.2702L10.7736 7.90505V12.6353L13.8562 10.2702Z" fill="white"/>
</svg>
