<svg width="16" height="16" viewBox="0 0 16 16" fill="none" xmlns="http://www.w3.org/2000/svg">
<path d="M1 1.50002C1 1.36741 1.05268 1.24023 1.14645 1.14647C1.24021 1.0527 1.36739 1.00002 1.5 1.00002C1.63261 1.00002 1.75979 1.0527 1.85355 1.14647C1.94732 1.24023 2 1.36741 2 1.50002V14.5C2 14.6326 1.94732 14.7598 1.85355 14.8536C1.75979 14.9473 1.63261 15 1.5 15C1.36739 15 1.24021 14.9473 1.14645 14.8536C1.05268 14.7598 1 14.6326 1 14.5V1.50002ZM15 2.25202C15 1.25202 13.883 0.65702 13.053 1.21402L4.553 6.92102C4.38334 7.03502 4.24423 7.18889 4.14785 7.36914C4.05147 7.54939 4.00076 7.75053 4.00017 7.95493C3.99957 8.15933 4.04912 8.36075 4.14445 8.54156C4.23979 8.72237 4.37801 8.87704 4.547 8.99202L13.046 14.785C13.2339 14.9131 13.4531 14.9874 13.6801 15.0002C13.9071 15.0129 14.1332 14.9635 14.3342 14.8572C14.5352 14.7509 14.7034 14.5919 14.8207 14.3971C14.938 14.2024 15 13.9794 15 13.752V2.25202ZM13.61 2.04502C13.6476 2.01961 13.6914 2.00491 13.7367 2.0025C13.782 2.00008 13.8271 2.01005 13.8672 2.03132C13.9073 2.05259 13.9408 2.08437 13.9642 2.12325C13.9876 2.16213 14 2.20664 14 2.25202V13.752C14 13.952 13.775 14.072 13.609 13.959L5.109 8.16602C5.07529 8.14295 5.04774 8.11197 5.02877 8.07579C5.0098 8.03962 4.99998 7.99934 5.00018 7.95849C5.00038 7.91764 5.01058 7.87746 5.0299 7.84147C5.04922 7.80547 5.07707 7.77476 5.111 7.75202L13.611 2.04502H13.61Z" fill="white"/>
</svg>
