<svg width="18" height="18" viewBox="0 0 18 18" fill="none" xmlns="http://www.w3.org/2000/svg">
<path d="M0.000283232 9C0.00195094 7.4323 0.64725 5.92926 1.79458 4.82073C2.9419 3.71219 4.49753 3.08871 6.12009 3.0871H16.7704L15.2251 1.59409C15.1576 1.52883 15.1196 1.44031 15.1196 1.34801C15.1196 1.25571 15.1576 1.16719 15.2251 1.10193C15.2927 1.03667 15.3843 1 15.4798 1C15.5753 1 15.6669 1.03667 15.7345 1.10193L17.8944 3.18884C17.9279 3.22114 17.9544 3.2595 17.9726 3.30172C17.9907 3.34395 18 3.38921 18 3.43492C18 3.48063 17.9907 3.52589 17.9726 3.56811C17.9544 3.61033 17.9279 3.6487 17.8944 3.681L15.7345 5.7679C15.6669 5.83317 15.5753 5.86983 15.4798 5.86983C15.3843 5.86983 15.2927 5.83317 15.2251 5.7679C15.1576 5.70264 15.1196 5.61412 15.1196 5.52182C15.1196 5.42952 15.1576 5.34101 15.2251 5.27574L16.7704 3.78273H6.12009C4.68848 3.78435 3.31598 4.33454 2.30368 5.31262C1.29137 6.29069 0.721928 7.61679 0.720261 9C0.720261 9.09225 0.682333 9.18072 0.614822 9.24594C0.547311 9.31117 0.455747 9.34782 0.360272 9.34782C0.264797 9.34782 0.173233 9.31117 0.105722 9.24594C0.0382106 9.18072 0.000283232 9.09225 0.000283232 9ZM17.6397 8.65218C17.5443 8.65218 17.4527 8.68883 17.3852 8.75406C17.3177 8.81928 17.2797 8.90775 17.2797 9C17.2781 10.3832 16.7086 11.7093 15.6963 12.6874C14.684 13.6655 13.3115 14.2157 11.8799 14.2173H1.22964L2.7749 12.7243C2.84244 12.659 2.88039 12.5705 2.88039 12.4782C2.88039 12.3859 2.84244 12.2974 2.7749 12.2321C2.70735 12.1668 2.61573 12.1302 2.5202 12.1302C2.42468 12.1302 2.33306 12.1668 2.26551 12.2321L0.10558 14.319C0.0721095 14.3513 0.0455571 14.3897 0.0274409 14.4319C0.00932475 14.4741 0 14.5194 0 14.5651C0 14.6108 0.00932475 14.6561 0.0274409 14.6983C0.0455571 14.7405 0.0721095 14.7789 0.10558 14.8112L2.26551 16.8981C2.33306 16.9633 2.42468 17 2.5202 17C2.61573 17 2.70735 16.9633 2.7749 16.8981C2.84244 16.8328 2.88039 16.7443 2.88039 16.652C2.88039 16.5597 2.84244 16.4712 2.7749 16.4059L1.22964 14.9129H11.8799C13.5025 14.9113 15.0581 14.2878 16.2054 13.1793C17.3528 12.0707 17.998 10.5677 17.9997 9C17.9997 8.90775 17.9618 8.81928 17.8943 8.75406C17.8268 8.68883 17.7352 8.65218 17.6397 8.65218Z" fill="white"/>
</svg>
