<svg width="16" height="16" viewBox="0 0 16 16" fill="none" xmlns="http://www.w3.org/2000/svg">
<path d="M1.00022 8C1.00152 6.82422 1.50342 5.69695 2.39578 4.86555C3.28815 4.03414 4.49808 3.56653 5.76007 3.56532H14.0436L12.8417 2.44557C12.7892 2.39662 12.7597 2.33023 12.7597 2.26101C12.7597 2.19178 12.7892 2.1254 12.8417 2.07645C12.8943 2.0275 12.9655 2 13.0398 2C13.1141 2 13.1854 2.0275 13.2379 2.07645L14.9179 3.64163C14.9439 3.66585 14.9646 3.69462 14.9787 3.72629C14.9927 3.75796 15 3.79191 15 3.82619C15 3.86047 14.9927 3.89441 14.9787 3.92608C14.9646 3.95775 14.9439 3.98652 14.9179 4.01075L13.2379 5.57593C13.1854 5.62488 13.1141 5.65238 13.0398 5.65238C12.9655 5.65238 12.8943 5.62488 12.8417 5.57593C12.7892 5.52698 12.7597 5.46059 12.7597 5.39137C12.7597 5.32214 12.7892 5.25575 12.8417 5.20681L14.0436 4.08705H5.76007C4.64659 4.08826 3.5791 4.5009 2.79175 5.23446C2.0044 5.96802 1.5615 6.96259 1.5602 8C1.5602 8.06919 1.5307 8.13554 1.4782 8.18446C1.42569 8.23338 1.35447 8.26086 1.28021 8.26086C1.20595 8.26086 1.13474 8.23338 1.08223 8.18446C1.02972 8.13554 1.00022 8.06919 1.00022 8ZM14.7198 7.73914C14.6455 7.73914 14.5743 7.76662 14.5218 7.81554C14.4693 7.86446 14.4398 7.93081 14.4398 8C14.4385 9.03741 13.9956 10.032 13.2083 10.7655C12.4209 11.4991 11.3534 11.9117 10.2399 11.9129H1.95639L3.15825 10.7932C3.21079 10.7442 3.24031 10.6779 3.24031 10.6086C3.24031 10.5394 3.21079 10.473 3.15825 10.4241C3.10571 10.3751 3.03446 10.3476 2.96016 10.3476C2.88586 10.3476 2.8146 10.3751 2.76206 10.4241L1.08212 11.9893C1.05609 12.0135 1.03543 12.0422 1.02134 12.0739C1.00725 12.1056 1 12.1395 1 12.1738C1 12.2081 1.00725 12.242 1.02134 12.2737C1.03543 12.3054 1.05609 12.3341 1.08212 12.3584L2.76206 13.9236C2.8146 13.9725 2.88586 14 2.96016 14C3.03446 14 3.10571 13.9725 3.15825 13.9236C3.21079 13.8746 3.24031 13.8082 3.24031 13.739C3.24031 13.6698 3.21079 13.6034 3.15825 13.5544L1.95639 12.4347H10.2399C11.5019 12.4335 12.7119 11.9659 13.6042 11.1345C14.4966 10.3031 14.9985 9.17578 14.9998 8C14.9998 7.93081 14.9703 7.86446 14.9178 7.81554C14.8653 7.76662 14.794 7.73914 14.7198 7.73914Z" fill="white"/>
</svg>
