<svg width="22" height="22" viewBox="0 0 22 22" fill="none" xmlns="http://www.w3.org/2000/svg">
<path d="M19.9369 6.56137C20.0964 6.56137 20.2435 6.6147 20.3603 6.70404L20.4524 6.78803L20.4758 6.8147C21.2745 7.77477 21.7829 8.93095 21.9444 10.1546C22.1059 11.3782 21.9141 12.6213 21.3904 13.7455C20.8668 14.8697 20.0318 15.831 18.9783 16.5223C17.9248 17.2136 16.6942 17.6079 15.4235 17.6613L15.1251 17.6666H6.87639C6.73745 17.6666 6.59853 17.6626 6.45983 17.6546L8.73786 19.8613C8.85152 19.9717 8.92161 20.1174 8.93593 20.2728C8.95025 20.4283 8.90789 20.5837 8.81622 20.7119L8.73786 20.8053C8.62395 20.9155 8.47377 20.9835 8.3135 20.9974C8.15322 21.0112 7.993 20.9702 7.86074 20.8813L7.76451 20.8053L4.32754 17.4719C4.21388 17.3615 4.14378 17.2158 4.12946 17.0604C4.11514 16.9049 4.15751 16.7496 4.24918 16.6213L4.32754 16.528L7.76451 13.1946C7.88575 13.0765 8.04821 13.0068 8.21987 12.999C8.39153 12.9913 8.55994 13.0463 8.69192 13.153C8.82389 13.2598 8.90985 13.4106 8.93286 13.5757C8.95587 13.7409 8.91425 13.9084 8.81622 14.0453L8.73786 14.1386L6.48733 16.32L6.6798 16.3306L6.87639 16.3333H15.1251C16.1636 16.3334 17.1809 16.0483 18.0593 15.511C18.9376 14.9737 19.6412 14.2062 20.0885 13.2973C20.5358 12.3883 20.7086 11.3751 20.5869 10.3749C20.4652 9.37468 20.0539 8.42833 19.4007 7.64536C19.32 7.54734 19.2694 7.42921 19.2549 7.30457C19.2403 7.17992 19.2622 7.05381 19.3182 6.94073C19.3742 6.82766 19.462 6.73219 19.5714 6.66532C19.6809 6.59845 19.8075 6.56155 19.9369 6.56137ZM13.2637 1.19475C13.3776 1.08451 13.5277 1.01653 13.688 1.00265C13.8483 0.988758 14.0085 1.02984 14.1408 1.11875L14.237 1.19475L17.674 4.52805L17.7523 4.62139C17.8316 4.73272 17.874 4.86478 17.874 5.00005C17.874 5.13532 17.8316 5.26738 17.7523 5.37871L17.674 5.47205L14.237 8.80535L14.1408 8.88135C14.026 8.95818 13.8898 8.99933 13.7503 8.99933C13.6109 8.99933 13.4747 8.95818 13.3599 8.88135L13.2637 8.80535L13.1853 8.71202C13.1061 8.60069 13.0636 8.46862 13.0636 8.33336C13.0636 8.19809 13.1061 8.06602 13.1853 7.95469L13.2637 7.86136L15.5142 5.68004L15.3217 5.66938L15.1251 5.66671H6.87639C5.83702 5.66665 4.81892 5.95226 3.94008 6.49044C3.06124 7.02862 2.35766 7.79733 1.91088 8.70747C1.46411 9.61761 1.29243 10.6319 1.41576 11.6328C1.53908 12.6337 1.95236 13.5802 2.60768 14.3626C2.71725 14.5043 2.76432 14.6823 2.73853 14.8576C2.71275 15.0329 2.61623 15.191 2.4702 15.2973C2.39789 15.3499 2.31561 15.3882 2.22805 15.41C2.14048 15.4318 2.04935 15.4366 1.95986 15.4242C1.77913 15.3992 1.61604 15.3056 1.50647 15.164C0.713259 14.2024 0.210141 13.0466 0.0529113 11.8247C-0.104319 10.6028 0.0904841 9.36249 0.615717 8.24139C1.14095 7.12029 1.97609 6.16218 3.02852 5.47331C4.08095 4.78444 5.30955 4.39173 6.57807 4.33872L6.87639 4.33339H15.1251C15.2654 4.33339 15.4042 4.33739 15.5417 4.34539L13.2637 2.13874L13.1853 2.04541C13.0936 1.91714 13.0513 1.76175 13.0656 1.60631C13.0799 1.45087 13.15 1.30522 13.2637 1.19475Z" fill="white"/>
</svg>
