<svg width="16" height="16" viewBox="0 0 16 16" fill="none" xmlns="http://www.w3.org/2000/svg">
<path d="M6.44056 0C2.89143 0 0 2.89143 0 6.44056C0 9.98969 2.89143 12.8811 6.44056 12.8811C7.97579 12.8811 9.3871 12.3388 10.4954 11.4375L14.853 15.7952C14.9144 15.8591 14.9879 15.9102 15.0693 15.9453C15.1507 15.9805 15.2383 15.9991 15.3269 16C15.4155 16.0009 15.5035 15.9841 15.5855 15.9506C15.6676 15.9171 15.7422 15.8675 15.8048 15.8048C15.8675 15.7422 15.9171 15.6676 15.9506 15.5855C15.9841 15.5035 16.0009 15.4155 16 15.3269C15.9991 15.2383 15.9805 15.1507 15.9453 15.0693C15.9102 14.9879 15.8591 14.9144 15.7952 14.853L11.4375 10.4954C12.3388 9.3871 12.8811 7.97579 12.8811 6.44056C12.8811 2.89143 9.98969 0 6.44056 0ZM6.44056 1.33253C9.26954 1.33253 11.5486 3.61158 11.5486 6.44056C11.5486 7.81867 11.005 9.06374 10.1232 9.98096C10.0689 10.0209 10.0209 10.0689 9.98096 10.1232C9.06374 11.005 7.81867 11.5486 6.44056 11.5486C3.61158 11.5486 1.33253 9.26954 1.33253 6.44056C1.33253 3.61158 3.61158 1.33253 6.44056 1.33253Z" fill="white"/>
</svg>
