<svg width="16" height="16" viewBox="0 0 16 16" fill="none" xmlns="http://www.w3.org/2000/svg">
<path d="M14.921 11.7978C14.9461 11.8243 14.9659 11.8558 14.9795 11.8905C14.993 11.9252 15 11.9623 15 11.9999C15 12.0374 14.993 12.0746 14.9795 12.1093C14.9659 12.144 14.9461 12.1755 14.921 12.202L13.3057 13.9163C13.2552 13.9699 13.1866 14 13.1152 14C13.0438 14 12.9752 13.9699 12.9247 13.9163C12.8742 13.8627 12.8458 13.79 12.8458 13.7141C12.8458 13.6383 12.8742 13.5656 12.9247 13.512L14.0804 12.2856H12.64C11.9116 12.2848 11.1938 12.0998 10.546 11.7461C9.89832 11.3923 9.3393 10.88 8.91527 10.2514L6.1079 6.08076C5.73384 5.52602 5.24061 5.07385 4.66906 4.7617C4.09752 4.44956 3.46411 4.28642 2.82132 4.28581H1.26923C1.19782 4.28581 1.12934 4.25571 1.07885 4.20213C1.02836 4.14855 1 4.07588 1 4.00011C1 3.92433 1.02836 3.85166 1.07885 3.79808C1.12934 3.7445 1.19782 3.7144 1.26923 3.7144H2.82132C3.54978 3.71524 4.26758 3.90019 4.9153 4.25393C5.56302 4.60768 6.12203 5.12005 6.54607 5.74863L9.35343 9.91923C9.72749 10.474 10.2207 10.9261 10.7923 11.2383C11.3638 11.5504 11.9972 11.7136 12.64 11.7142H14.0804L12.9247 10.4878C12.8742 10.4342 12.8458 10.3615 12.8458 10.2857C12.8458 10.2098 12.8742 10.1371 12.9247 10.0835C12.9752 10.0299 13.0438 9.99979 13.1152 9.99979C13.1866 9.99979 13.2552 10.0299 13.3057 10.0835L14.921 11.7978ZM8.89776 6.26647C8.92654 6.28828 8.95907 6.30386 8.99352 6.31233C9.02796 6.32079 9.06364 6.32198 9.09852 6.31581C9.13339 6.30964 9.16678 6.29624 9.19678 6.27638C9.22677 6.25652 9.25279 6.23058 9.27334 6.20005L9.35343 6.08076C9.72749 5.52602 10.2207 5.07385 10.7923 4.7617C11.3638 4.44956 11.9972 4.28642 12.64 4.28581H14.0804L12.9247 5.51221C12.8742 5.56582 12.8458 5.63853 12.8458 5.71435C12.8458 5.79016 12.8742 5.86287 12.9247 5.91648C12.9752 5.97009 13.0438 6.00021 13.1152 6.00021C13.1866 6.00021 13.2552 5.97009 13.3057 5.91648L14.921 4.20224C14.9461 4.17571 14.9659 4.1442 14.9795 4.10951C14.993 4.07483 15 4.03765 15 4.00011C15 3.96256 14.993 3.92538 14.9795 3.8907C14.9659 3.85601 14.9461 3.8245 14.921 3.79797L13.3057 2.08373C13.2552 2.03012 13.1866 2 13.1152 2C13.0438 2 12.9752 2.03012 12.9247 2.08373C12.8742 2.13734 12.8458 2.21005 12.8458 2.28587C12.8458 2.36168 12.8742 2.43439 12.9247 2.488L14.0804 3.7144H12.64C11.9116 3.71524 11.1938 3.90019 10.546 4.25393C9.89832 4.60768 9.3393 5.12005 8.91527 5.74863L8.83517 5.86791C8.81462 5.89844 8.79994 5.93297 8.79196 5.96953C8.78398 6.00608 8.78287 6.04394 8.78868 6.08095C8.79449 6.11796 8.80712 6.15339 8.82584 6.18523C8.84455 6.21706 8.86899 6.24467 8.89776 6.26647ZM6.56357 9.73353C6.5348 9.71172 6.50226 9.69613 6.46782 9.68767C6.43337 9.67921 6.39769 9.67802 6.36282 9.68419C6.32794 9.69036 6.29456 9.70376 6.26456 9.72362C6.23456 9.74348 6.20855 9.76942 6.188 9.79995L6.1079 9.91923C5.73384 10.474 5.24061 10.9261 4.66906 11.2383C4.09752 11.5504 3.46411 11.7136 2.82132 11.7142H1.26923C1.19782 11.7142 1.12934 11.7443 1.07885 11.7979C1.02836 11.8514 1 11.9241 1 11.9999C1 12.0757 1.02836 12.1483 1.07885 12.2019C1.12934 12.2555 1.19782 12.2856 1.26923 12.2856H2.82132C3.54978 12.2848 4.26758 12.0998 4.9153 11.7461C5.56302 11.3923 6.12203 10.88 6.54607 10.2514L6.62616 10.1321C6.64672 10.1016 6.6614 10.067 6.66938 10.0305C6.67735 9.99392 6.67847 9.95606 6.67265 9.91905C6.66684 9.88204 6.65422 9.84661 6.6355 9.81477C6.61678 9.78294 6.59234 9.75533 6.56357 9.73353Z" fill="white"/>
</svg>
