<svg width="22" height="22" viewBox="0 0 22 22" fill="none" xmlns="http://www.w3.org/2000/svg">
    <path
        d="M19.0482 1.24436C18.9191 1.0879 18.744 1 18.5615 1C18.3789 1 18.2038 1.0879 18.0747 1.24436C17.9457 1.40082 17.8731 1.61302 17.8731 1.83429C17.8731 2.05555 17.9457 2.26776 18.0747 2.42422L19.6559 4.33733C15.087 4.45898 12.3922 7.50695 9.88707 10.3416L9.84308 10.3916C7.25547 13.3163 4.8576 15.9993 0.687462 15.9993C0.505135 15.9993 0.330277 16.0871 0.201353 16.2433C0.0724289 16.3996 0 16.6115 0 16.8325C0 17.0535 0.0724289 17.2655 0.201353 17.4217C0.330277 17.578 0.505135 17.6658 0.687462 17.6658C5.42682 17.6658 8.18079 14.5495 10.7382 11.6581L10.7808 11.6081C13.3079 8.75014 15.6549 6.12545 19.649 6.00546L18.0747 7.91191C17.9458 8.06837 17.8735 8.28048 17.8736 8.50159C17.8737 8.7227 17.9463 8.9347 18.0754 9.09093C18.2045 9.24717 18.3795 9.33486 18.5619 9.3347C18.7444 9.33455 18.9193 9.24656 19.0482 9.0901L21.798 5.75716C21.8621 5.67976 21.9128 5.58781 21.9475 5.48658C21.9822 5.38535 22 5.27683 22 5.16723C22 5.05763 21.9822 4.94911 21.9475 4.84788C21.9128 4.74665 21.8621 4.6547 21.798 4.5773L19.0482 1.24436ZM0.687462 4.33399C4.551 4.33399 7.09598 6.40542 9.28898 8.73681L8.904 9.17176C8.69226 9.4134 8.48328 9.65004 8.27566 9.88001C6.21053 7.70526 4.01478 6.00047 0.687462 6.00047C0.505135 6.00047 0.330277 5.91268 0.201353 5.75642C0.0724289 5.60015 0 5.38822 0 5.16723C0 4.94624 0.0724289 4.73431 0.201353 4.57804C0.330277 4.42178 0.505135 4.33399 0.687462 4.33399ZM19.6545 17.6624C15.9477 17.5641 13.4742 15.5377 11.3349 13.2629L11.7198 12.828C11.9316 12.5864 12.1406 12.3497 12.3482 12.1197C14.3528 14.2312 16.484 15.8993 19.649 15.9943L18.0747 14.0895C17.9457 13.9331 17.8731 13.7209 17.8731 13.4996C17.8731 13.2783 17.9457 13.0661 18.0747 12.9097C18.2038 12.7532 18.3789 12.6653 18.5615 12.6653C18.744 12.6653 18.9191 12.7532 19.0482 12.9097L21.798 16.2426C21.8621 16.32 21.9128 16.4119 21.9475 16.5132C21.9822 16.6144 22 16.7229 22 16.8325C22 16.9421 21.9822 17.0506 21.9475 17.1519C21.9128 17.2531 21.8621 17.3451 21.798 17.4225L19.0482 20.7554C18.9193 20.9119 18.7444 20.9998 18.5619 21C18.3795 21.0002 18.2045 20.9125 18.0754 20.7562C17.9463 20.6 17.8737 20.388 17.8736 20.1669C17.8735 19.9458 17.9458 19.7337 18.0747 19.5772L19.6559 17.6608L19.6545 17.6624Z"
        fill="white" />
</svg>