<svg width="18" height="18" viewBox="0 0 18 18" fill="none" xmlns="http://www.w3.org/2000/svg">
<path d="M17.8985 14.0637C17.9307 14.0991 17.9562 14.1411 17.9736 14.1873C17.991 14.2336 18 14.2831 18 14.3332C18 14.3833 17.991 14.4328 17.9736 14.4791C17.9562 14.5253 17.9307 14.5673 17.8985 14.6027L15.8216 16.8884C15.7566 16.9598 15.6685 17 15.5767 17C15.4848 17 15.3967 16.9598 15.3318 16.8884C15.2668 16.8169 15.2303 16.7199 15.2303 16.6188C15.2303 16.5178 15.2668 16.4208 15.3318 16.3493L16.8176 14.7141H14.9657C14.0291 14.713 13.1063 14.4664 12.2735 13.9948C11.4407 13.5231 10.722 12.8399 10.1768 12.0018L6.5673 6.44102C6.08637 5.70136 5.45221 5.09847 4.71737 4.68227C3.98252 4.26608 3.16814 4.04856 2.3417 4.04775H0.346149C0.254344 4.04775 0.1663 4.00762 0.101385 3.93617C0.0364692 3.86473 0 3.76784 0 3.66681C0 3.56578 0.0364692 3.46888 0.101385 3.39744C0.1663 3.326 0.254344 3.28587 0.346149 3.28587H2.3417C3.27829 3.28699 4.20117 3.53358 5.03396 4.00524C5.86674 4.4769 6.58547 5.16006 7.13066 5.99817L10.7401 11.559C11.2211 12.2986 11.8552 12.9015 12.5901 13.3177C13.3249 13.7339 14.1393 13.9514 14.9657 13.9522H16.8176L15.3318 12.3171C15.2668 12.2456 15.2303 12.1486 15.2303 12.0475C15.2303 11.9465 15.2668 11.8495 15.3318 11.778C15.3967 11.7065 15.4848 11.6664 15.5767 11.6664C15.6685 11.6664 15.7566 11.7065 15.8216 11.778L17.8985 14.0637ZM10.1543 6.68863C10.1913 6.71771 10.2331 6.73849 10.2774 6.74977C10.3217 6.76106 10.3675 6.76264 10.4124 6.75441C10.4572 6.74619 10.5001 6.72832 10.5387 6.70184C10.5773 6.67536 10.6107 6.64077 10.6371 6.60006L10.7401 6.44102C11.2211 5.70136 11.8552 5.09847 12.5901 4.68227C13.3249 4.26608 14.1393 4.04856 14.9657 4.04775H16.8176L15.3318 5.68294C15.2668 5.75442 15.2303 5.85137 15.2303 5.95246C15.2303 6.05355 15.2668 6.1505 15.3318 6.22198C15.3967 6.29346 15.4848 6.33362 15.5767 6.33362C15.6685 6.33362 15.7566 6.29346 15.8216 6.22198L17.8985 3.93632C17.9307 3.90095 17.9562 3.85893 17.9736 3.81269C17.991 3.76644 18 3.71687 18 3.66681C18 3.61675 17.991 3.56718 17.9736 3.52093C17.9562 3.47468 17.9307 3.43267 17.8985 3.39729L15.8216 1.11164C15.7566 1.04016 15.6685 1 15.5767 1C15.4848 1 15.3967 1.04016 15.3318 1.11164C15.2668 1.18312 15.2303 1.28007 15.2303 1.38115C15.2303 1.48224 15.2668 1.57919 15.3318 1.65067L16.8176 3.28587H14.9657C14.0291 3.28699 13.1063 3.53358 12.2735 4.00524C11.4407 4.4769 10.722 5.16006 10.1768 5.99817L10.0738 6.15722C10.0474 6.19793 10.0285 6.24396 10.0182 6.2927C10.008 6.34144 10.0065 6.39192 10.014 6.44127C10.0215 6.49062 10.0377 6.53786 10.0618 6.5803C10.0859 6.62274 10.1173 6.65956 10.1543 6.68863ZM7.15316 11.3114C7.11617 11.2823 7.07434 11.2615 7.03005 11.2502C6.98577 11.2389 6.93989 11.2374 6.89505 11.2456C6.85021 11.2538 6.80729 11.2717 6.76872 11.2982C6.73015 11.3246 6.69671 11.3592 6.67028 11.3999L6.5673 11.559C6.08637 12.2986 5.45221 12.9015 4.71737 13.3177C3.98252 13.7339 3.16814 13.9514 2.3417 13.9522H0.346149C0.254344 13.9522 0.1663 13.9924 0.101385 14.0638C0.0364692 14.1353 0 14.2322 0 14.3332C0 14.4342 0.0364692 14.5311 0.101385 14.6026C0.1663 14.674 0.254344 14.7141 0.346149 14.7141H2.3417C3.27829 14.713 4.20117 14.4664 5.03396 13.9948C5.86674 13.5231 6.58547 12.8399 7.13066 12.0018L7.23364 11.8428C7.26006 11.8021 7.27894 11.756 7.2892 11.7073C7.29945 11.6586 7.30088 11.6081 7.29341 11.5587C7.28594 11.5094 7.26971 11.4621 7.24564 11.4197C7.22158 11.3773 7.19015 11.3404 7.15316 11.3114Z" fill="white"/>
</svg>
